<?xml version="1.0" encoding="UTF-8" standalone="no"?>
<!-- Created with Inkscape (http://www.inkscape.org/) -->

<svg
   xmlns:dc="http://purl.org/dc/elements/1.1/"
   xmlns:cc="http://creativecommons.org/ns#"
   xmlns:rdf="http://www.w3.org/1999/02/22-rdf-syntax-ns#"
   xmlns:svg="http://www.w3.org/2000/svg"
   xmlns="http://www.w3.org/2000/svg"
   xmlns:sodipodi="http://sodipodi.sourceforge.net/DTD/sodipodi-0.dtd"
   xmlns:inkscape="http://www.inkscape.org/namespaces/inkscape"
   id="svg2"
   version="1.1"
   inkscape:version="0.91 r"
   xml:space="preserve"
   width="270"
   height="270"
   viewBox="0 0 270 270"
   sodipodi:docname="pyladies-remote-logo.svg"><metadata
     id="metadata8"><rdf:RDF><cc:Work
         rdf:about=""><dc:format>image/svg+xml</dc:format><dc:type
           rdf:resource="http://purl.org/dc/dcmitype/StillImage" /><dc:title></dc:title></cc:Work></rdf:RDF></metadata><defs
     id="defs6"><clipPath
       clipPathUnits="userSpaceOnUse"
       id="clipPath16"><path
         d="M 0,216 216,216 216,0 0,0 0,216 Z"
         id="path18"
         inkscape:connector-curvature="0" /></clipPath><clipPath
       clipPathUnits="userSpaceOnUse"
       id="clipPath88"><path
         d="M 0,216 216,216 216,0 0,0 0,216 Z"
         id="path90"
         inkscape:connector-curvature="0" /></clipPath></defs><sodipodi:namedview
     pagecolor="#ffffff"
     bordercolor="#666666"
     borderopacity="1"
     objecttolerance="10"
     gridtolerance="10"
     guidetolerance="10"
     inkscape:pageopacity="0"
     inkscape:pageshadow="2"
     inkscape:window-width="1855"
     inkscape:window-height="1056"
     id="namedview4"
     showgrid="false"
     inkscape:zoom="0.87407407"
     inkscape:cx="135"
     inkscape:cy="135"
     inkscape:window-x="65"
     inkscape:window-y="24"
     inkscape:window-maximized="1"
     inkscape:current-layer="g10" /><g
     id="g10"
     inkscape:groupmode="layer"
     inkscape:label="pyladies-remote-logo"
     transform="matrix(1.25,0,0,-1.25,0,270)"><g
       id="g12"><g
         id="g14"
         clip-path="url(#clipPath16)"><g
           id="g20"
           transform="translate(191.3135,116.1546)"><path
             d="m 0,0 c 0,-46.617 -37.791,-84.407 -84.406,-84.407 -46.618,0 -84.409,37.79 -84.409,84.407 0,46.617 37.791,84.408 84.409,84.408 C -37.791,84.408 0,46.617 0,0"
             style="fill:#ed1b49;fill-opacity:1;fill-rule:nonzero;stroke:none"
             id="path22"
             inkscape:connector-curvature="0" /></g><g
           id="g24"
           transform="translate(110.0362,134.4192)"><path
             d="M 0,0 C -1.071,0.043 -2.095,0.037 -3.13,0.044 -4.166,0.037 -5.189,0.043 -6.259,0 c -53.33,-2.102 -61.206,-41.123 -61.206,-41.123 0,0 15.464,-45.625 28.368,-56.091 7.425,-6.025 26.31,-15.886 35.967,-16.642 9.657,0.756 28.54,10.617 35.967,16.642 12.903,10.466 28.368,56.091 28.368,56.091 0,0 -7.876,39.021 -61.205,41.123"
             style="fill:#ffffff;fill-opacity:1;fill-rule:nonzero;stroke:none"
             id="path26"
             inkscape:connector-curvature="0" /></g><g
           id="g28"
           transform="translate(91.7173,64.3206)"><path
             d="m 0,0 c 0,0 -6.064,-8.475 -13.543,-8.475 -7.481,0 -13.544,8.475 -13.544,8.475 0,0 6.063,7.775 13.544,7.775 C -6.064,7.775 0,0 0,0"
             style="fill:#ffffff;fill-opacity:1;fill-rule:nonzero;stroke:none"
             id="path30"
             inkscape:connector-curvature="0" /></g><g
           id="g32"
           transform="translate(18.4268,82.4022)"><path
             d="m 0,0 c 31.969,-1.841 42.277,25.518 42.277,25.518 0,0 21.362,-16.373 54.057,-25.607 42.579,-12.024 81.348,17.761 81.348,17.761 0,0 -32.071,12.553 -41.545,63.183 C 104.793,90.247 60.432,73.862 34.759,61.558 9.086,49.253 18.653,8.55 0,0"
             style="fill:#ed1b49;fill-opacity:1;fill-rule:nonzero;stroke:none"
             id="path34"
             inkscape:connector-curvature="0" /></g><g
           id="g36"
           transform="translate(122.0938,64.3206)"><path
             d="m 0,0 c 0,0 6.064,-8.475 13.543,-8.475 7.48,0 13.544,8.475 13.544,8.475 0,0 -6.064,7.775 -13.544,7.775 C 6.064,7.775 0,0 0,0"
             style="fill:#ffffff;fill-opacity:1;fill-rule:nonzero;stroke:none"
             id="path38"
             inkscape:connector-curvature="0" /></g><g
           id="g40"
           transform="translate(127.335,67.6058)"><path
             d="M 0,0 C 0,0.642 0.081,1.266 0.22,1.868 2.16,4.049 5,5.432 8.179,5.432 c 3.359,0 6.346,-1.545 8.284,-3.945 C 16.551,1.004 16.602,0.508 16.602,0 16.602,-4.586 12.887,-8.302 8.301,-8.302 3.718,-8.302 0,-4.586 0,0"
             style="fill:#231f20;fill-opacity:1;fill-rule:nonzero;stroke:none"
             id="path42"
             inkscape:connector-curvature="0" /></g><g
           id="g44"
           transform="translate(149.4747,63.6775)"><path
             d="m 0,0 c 0,0 -4.114,6.398 -12.531,8.002 -8.419,1.603 -14.85,-7.358 -14.85,-7.358 0,0 5.241,9.156 11.195,10.698 1.908,0.494 4.277,0.259 4.277,0.259 0,0 3.468,1.428 3.994,1.106 0.529,-0.321 -0.659,-1.925 -0.659,-1.925 0,0 3.915,1.577 4.168,1.026 0.251,-0.552 -1.13,-2.48 -1.13,-2.48 0,0 4.872,2.965 5.243,2.183 0.369,-0.783 -2.153,-3.415 -2.153,-3.415 0,0 7.966,3.757 8.325,2.302 C 6.24,8.943 0.334,4.606 0.334,4.606 c 0,0 10.171,4.013 10.423,2.501 0.25,-1.515 -10.864,-7.784 -10.864,-7.784 L 0,0 Z"
             style="fill:#231f20;fill-opacity:1;fill-rule:nonzero;stroke:none"
             id="path46"
             inkscape:connector-curvature="0" /></g><g
           id="g48"
           transform="translate(133.1153,67.5613)"><path
             d="m 0,0 c 0,-1.191 -0.966,-2.158 -2.155,-2.158 -1.191,0 -2.156,0.967 -2.156,2.158 0,1.19 0.965,2.153 2.156,2.153 C -0.966,2.153 0,1.19 0,0"
             style="fill:#ffffff;fill-opacity:1;fill-rule:nonzero;stroke:none"
             id="path50"
             inkscape:connector-curvature="0" /></g><g
           id="g52"
           transform="translate(64.336,63.6775)"><path
             d="m 0,0 c 0,0 4.115,6.398 12.533,8.002 8.418,1.603 14.849,-7.358 14.849,-7.358 0,0 -5.243,9.156 -11.196,10.698 -1.909,0.494 -4.277,0.259 -4.277,0.259 0,0 -3.467,1.428 -3.994,1.106 -0.527,-0.321 0.66,-1.925 0.66,-1.925 0,0 -3.918,1.577 -4.169,1.026 -0.252,-0.552 1.13,-2.48 1.13,-2.48 0,0 -4.873,2.965 -5.242,2.183 -0.37,-0.783 2.153,-3.415 2.153,-3.415 0,0 -7.966,3.757 -8.326,2.302 -0.36,-1.455 5.545,-5.792 5.545,-5.792 0,0 -10.17,4.013 -10.42,2.501 C -11.006,5.592 0.107,-0.677 0.107,-0.677 L 0,0 Z"
             style="fill:#231f20;fill-opacity:1;fill-rule:nonzero;stroke:none"
             id="path54"
             inkscape:connector-curvature="0" /></g><g
           id="g56"
           transform="translate(86.4747,67.6058)"><path
             d="m 0,0 c 0,0.642 -0.081,1.266 -0.218,1.868 -1.941,2.181 -4.783,3.564 -7.96,3.564 -3.359,0 -6.346,-1.545 -8.284,-3.945 C -16.55,1.004 -16.603,0.508 -16.603,0 c 0,-4.586 3.716,-8.302 8.302,-8.302 C -3.716,-8.302 0,-4.586 0,0"
             style="fill:#231f20;fill-opacity:1;fill-rule:nonzero;stroke:none"
             id="path58"
             inkscape:connector-curvature="0" /></g><g
           id="g60"
           transform="translate(75.6045,67.5599)"><path
             d="m 0,0 c 0,-1.191 -0.966,-2.156 -2.155,-2.156 -1.191,0 -2.157,0.965 -2.157,2.156 0,1.19 0.966,2.155 2.157,2.155 C -0.966,2.155 0,1.19 0,0"
             style="fill:#ffffff;fill-opacity:1;fill-rule:nonzero;stroke:none"
             id="path62"
             inkscape:connector-curvature="0" /></g><g
           id="g64"
           transform="translate(103.6246,52.4832)"><path
             d="M 0,0 C 0.917,0.549 1.999,0.866 3.164,0.866 4.328,0.866 5.41,0.549 6.329,0 7.015,-0.105 7.665,-0.236 8.264,-0.398 7.197,1.226 5.318,2.314 3.164,2.314 1.009,2.314 -0.869,1.226 -1.937,-0.398 -1.339,-0.236 -0.687,-0.105 0,0"
             style="fill:#231f20;fill-opacity:1;fill-rule:nonzero;stroke:none"
             id="path66"
             inkscape:connector-curvature="0" /></g><g
           id="g68"
           transform="translate(65.8838,51.367)"><path
             d="m 0,0 c -0.181,0.021 -4.387,1.309 -7.911,5.006 -4.733,4.966 -4.457,8.66 -4.716,9.74 l 1.033,-2.014 c 0.009,-0.048 1.255,-3.869 4.555,-6.745 C -3.537,2.934 0.136,1.44 0.176,1.436 L 0,0 Z"
             style="fill:#231f20;fill-opacity:1;fill-rule:nonzero;stroke:none"
             id="path70"
             inkscape:connector-curvature="0" /></g><g
           id="g72"
           transform="translate(147.8916,51.367)"><path
             d="m 0,0 c 0.181,0.021 4.388,1.309 7.912,5.006 4.734,4.966 4.456,8.66 4.715,9.74 L 11.594,12.732 C 11.585,12.684 10.341,8.863 7.04,5.987 3.539,2.934 -0.137,1.44 -0.176,1.436 L 0,0 Z"
             style="fill:#231f20;fill-opacity:1;fill-rule:nonzero;stroke:none"
             id="path74"
             inkscape:connector-curvature="0" /></g><g
           id="g76"
           transform="translate(102.9717,53.2732)"><path
             d="m 0,0 c -0.823,2.366 -17.322,2.437 -19.2,2.437 -12.431,0 -18.904,-0.991 -19.248,-3.043 0,-6.48 8.836,-14.398 19.146,-14.398 10.176,0 18.913,7.709 19.143,14.139 C 0.124,-0.504 0.054,-0.152 0,0 m -1.395,-1.083 c 0,-4.739 -7.043,-12.051 -16.399,-12.051 -9.357,0 -16.399,7.312 -16.412,11.939 0.322,0.707 4.982,1.759 16.504,1.759 8.944,0 14.949,-0.773 16.307,-1.386 l 0,-0.261 z"
             style="fill:#231f20;fill-opacity:1;fill-rule:nonzero;stroke:none"
             id="path78"
             inkscape:connector-curvature="0" /></g><g
           id="g80"
           transform="translate(110.962,52.408)"><path
             d="m 0,0 c 0.23,-6.43 8.969,-14.139 19.142,-14.139 10.313,0 19.149,7.918 19.149,14.398 C 37.946,2.311 31.471,3.302 19.043,3.302 17.163,3.302 0.664,3.231 -0.158,0.865 -0.212,0.712 -0.281,0.361 0,0 m 1.236,0.043 c 1.362,0.613 7.366,1.386 16.308,1.386 11.521,0 16.181,-1.052 16.503,-1.759 -0.013,-4.627 -7.053,-11.939 -16.41,-11.939 -9.358,0 -16.401,7.312 -16.401,12.051 l 0,0.261 z"
             style="fill:#231f20;fill-opacity:1;fill-rule:nonzero;stroke:none"
             id="path82"
             inkscape:connector-curvature="0" /></g></g></g><g
       id="g84"><g
         id="g86"
         clip-path="url(#clipPath88)"><g
           id="g92"
           transform="translate(197.7913,114.5943)"><path
             d="m 0,0 c -1.517,0.861 -3.237,1.394 -5.066,1.519 -1.435,49.523 -39.359,89.2 -85.937,89.2 -46.213,0 -83.905,-39.056 -85.896,-88.036 -1.661,-0.176 -3.228,-0.673 -4.62,-1.463 -4.536,-1.639 -7.986,-9.754 -7.986,-19.541 0,-9.788 3.45,-17.903 7.986,-19.542 1.742,-0.988 3.748,-1.561 5.883,-1.561 l 8.667,0 c 6.6,0 7.5,5.401 7.5,12 l 0,18.205 c 0,6.6 -0.9,12 -7.5,12 l -0.909,0 -0.459,-0.002 c 2.027,43.873 35.874,78.779 77.334,78.779 41.841,0 75.909,-35.556 77.362,-79.997 l -0.909,0 c -6.6,0 -7.5,-5.4 -7.5,-12 l 0,-18.205 c 0,-6.023 0.765,-11.034 5.914,-11.865 -2.672,-7.297 -9.62,-26.001 -13.334,-33.45 0,0 -4.006,-11.606 -15.343,-13.904 l -10.234,0 -0.018,0.971 c -0.036,1.98 -1.686,3.569 -3.666,3.533 l -27.878,-0.704 c -1.979,-0.037 -3.569,-1.687 -3.532,-3.667 l 0.21,-11.311 c 0.037,-1.979 1.687,-3.569 3.666,-3.532 l 27.878,0.704 c 1.98,0.037 3.569,1.686 3.533,3.666 l -0.004,0.181 11.221,-0.021 c 0,0 15.593,2.582 22.317,17.026 0,0 13.132,30.709 17.433,40.563 1.387,0.238 2.702,0.699 3.887,1.371 4.536,1.639 7.986,9.754 7.986,19.542 C 7.986,-9.754 4.536,-1.639 0,0"
             style="fill:#231f20;fill-opacity:1;fill-rule:nonzero;stroke:none"
             id="path94"
             inkscape:connector-curvature="0" /></g></g></g></g></svg>