<?xml version="1.0" encoding="UTF-8"?>
<!DOCTYPE svg PUBLIC "-//W3C//DTD SVG 1.1 Basic//EN" "http://www.w3.org/Graphics/SVG/1.1/DTD/svg11-basic.dtd" [
<!ENTITY ns_svg "http://www.w3.org/2000/svg">
<!ENTITY ns_xlink "http://www.w3.org/1999/xlink">
]>
<svg baseProfile="basic" enable-background="new 0 0 1600 780" viewBox="0 0 1600 780" xml:space="preserve" xmlns="http://www.w3.org/2000/svg">

	<path d="m824,146c-.276-.277-1.518.483-1,1 .276.277 1.518-.483 1-1zm0,7c2.462-6.217-3.134-3.297 0,0zm-5,294c-.276-.276-1.518.482-1,1 .276.276 1.518-.482 1-1zm-69,7c-.277-.276-1.518.482-1,1 .277.276 1.518-.482 1-1zm-242,33c1.966-.299 1.983,1.351 3,2 2.025-1.904 1.545-10 0-14-.978,4.021.028,10.028-3,12zm0,40c-2.96,4.04 1.487,15.486-4,17-1.236,3.236 3.236.764 2,4v7c-2.806-.189-.102,7.097 1,3-1.172-.161-.843-1.823-1-3 1.963-8.037 2.114-17.886 2-28 2.27-1.063.381-6.286 1-9 2.05.551 2.386-1.909 1-2-.19,1.135-1.003.555-1,0 .508-7.837 3.018-18.967 1-26-.742,6.258-1.36,12.641-1,20-1.849,1.817.081,7.414-3,8 4.054-.388 1.102,6.232 2,9zm2,30c-.277-.276-1.517.482-1,1 .277.276 1.517-.482 1-1zm354,79c-.276-.276-1.518.482-1,1 .276.276 1.518-.482 1-1z" fill="#fff" fill-rule="evenodd"></path>
	<path d="m790,118c-1.454.615.102,1.208 0,0 1.968,2.366 4.958,3.708 8,5 2.304.671 4.696,1.18 7,4-1.632,3.422.119,3.005 2,5 1.009,5.992.235,13.764 2,19 1.95-2.05 6.714-1.286 9-3 1.871-4.538-3.973-1.361-3-5 2.509-1.551 3.349-4.056 7-2 .251,2.917-1.883,3.45-3,5 3.292-.486 4.2,5.765 1,6-.282-1.615.945-1.722 1-3-2.461-1.555-2.94,3.396-1,3v2c-1.759-1.438-2.279-.917-2,2-1.172-.162-.844-1.823-1-3-2.555.112-1.984,3.349-2,6-2.168.168-.453-3.547-1-5-.962-3.629 4.493-.84 4-4-3.294.706-6.394,1.607-10,2-.001,3.234-2.87,6.29-2,13 3.597-.07 3.16-4.173 3-8 1.675-2.88.796,5.11 1,7 3.802.802 1.271-4.729 2-7 2.256.745.391,5.609 1,8-4.051,1.018-4.603-.671-7,2 1.599,2.805 4.501-1.404 8,0 2.449-1.329-1.1-3.721 1-4 3.149.483.749-4.584 3-5v3c1.743.296 3.507-3.879 0-3 .013-1.987 2.729-1.271 2-4 4.357-2.912-1.193,2.992 3,2 5.146,2.502-1.578,12.457 4,13-2.631,2.369-5.538,4.462-6,9 2.555,1.078 3.5-4.305 5-1-1.573,3.093-2.816,7.966-2,12 .67,3.312 3.63,4.64 4,7-2.94,3.621-4.955,11.107-2,15h-6c.535,3.868-1.785,4.882-1,9-2.152.848-3.537,2.463-3,6-2.545-.516-3.878-1.704-4,2-3.142,6.59.37,16.293-4,23 3.837,18.901 2.229,40.109 4,62 .298,3.686 1.725,7.563 2,11 .551,6.862-.984,13.038-1,20-.032,14.819 2.084,29.937 1,45 .013,2.806 2.729-2.381 2,2v13c.299,1.966-1.351,1.983-2,3 1.561,12.773 1.646,27.021 2,41-.318,2.652 5.602-.936 4,3 .048,3.381-4.817,1.849-5,5 2.933-.267 3.714-1.38 5,0 1.362,2.638 1.182,6.818 2,10-.314,2.352-4.74.594-4,4 1.838,6.569 1.121,14.917 1,21 .296,2.63-3.88.787-3,4-2.175,25.158-.448,54.218-1,81 2.889,2.444 5.254,5.413 7,9-.057,3.277-2.844,3.822-2,8 2.915,3.085 5.186,6.814 12,6v7c5.538-1.543 6.188-4.578 5-11 .933.611 3.688,2.327 3-1 1.141-3.379-3.13-12.481-1-17 1.161.839 2.681,1.319 5,1-1.39-3.062-.615-7.248 1-10 3.149-1.121 2.264-.09 6,0-.289,4.834-2.477,5.548-1,10 .628,2.039 5.053.28 4,4-.043,1.377.471,2.195 1,3 .075,1.742-.224,3.109-1,4 1.984,2.306-.251,1.111-1,3 1.177.156 2.839-.172 3,1-4.918,1.493-2.06,9.854-1,14-.707,7.374.938,12.396 2,18 .089,1.388 7.193.612 4,2-1.496.171-3.69-.357-4,1 3.045.289 6.826-.159 7,3 1.203,4.869-4.623,2.71-3,8 1.595.738-.229,4.895 3,4 2.059.274.941,3.726 3,4 .876-6.883-.52-19.986 0-32 3.428-7.239 5.664-15.669 10-22 .004-1.786-2.693-5.817 0-7 .156,1.177-.172,2.839 1,3 3.364-7.302 6.499-14.834 10-22 .609,2.391-1.256,7.255 1,8 .782,2.468-3.633,6.922 1,7 3.952-.318-.74-3.095 2-4 1.891-.224 2.206,1.127 4,1 .547-1.453-1.169-5.169 1-5 7.826.84 14.752,2.582 19,7-2.16,4.84-.46,13.54-1,20h9c.659-16.659-.903-31.097-1-47 2.398-1.935 3.054-5.612 7-6 31.817,1.517 59.251,7.416 83,17 .773-6.107-1.31-9.356-1-15 .815-4.519 2.892-7.774 4-12 5.41-3.256 7.761-9.572 14-12 27.183-1.484 53.134-4.199 83-3 .228,1.772-1.008,5.008 2,4h15c3.16-.493.371,4.962 4,4h13c0,7 1.695,12.305 1,20 5.376-1.624 5.905-8.095 15-6-.928-12.262 9.692-12.975 14-20 129.337.666 261.331-1.333 389,1 3.505,23.495 9.462,44.538 13,68 2.391.609 7.255-1.255 8,1 2.37,10.964 5.694,20.973 5,35h8v150h-1600v-494c50.056.389 99.171-.162 147-2 2.409.409 2.174-1.827 5-1h46c2.409-.409 2.174,1.827 5,1h8c30.792,3.208 58.754,9.246 85,17 12.112,4.888 25.08,8.92 36,15 5.792,2.874 11.523,5.811 16,10 5.892,2.775 10.367,6.966 14,12-.003,6.33-.65,12.017-2,17 4.839,3.161 9.031,6.97 13,11 2.418,1.582 3.675,4.325 6,6-.168,2.901 5.772,4.805 3,7-6.152.486-9.554-1.779-16-1-.955,16.379-3.786,30.881-5,47 6.059,3.274 12.559,6.108 17,11-2.72,18.947-3.888,39.445-7,58 5.996-1.005 16.583,2.583 18-3 1.131,3.14-.288,2.642 1,5-3.183-.2-9.327-2.606-12,0-.947,3.613 3.938,1.395 6,2 2.365,3.302 5.464,5.869 8,9 3.36-1.35 5.29.539 7-1 1.122.211 1.557,1.109 2,2h-6c-1.345,2.391 5,5.632 6,9 2.072-.595 6.569,1.236 7-1 1.122.211 1.557,1.109 2,2-3.736.09-2.85,1.121-6,0-.178,3.511 3.378,3.289 4,6 1.264,1.498 5.303,1.789 3,4h7v-1c.779.221 1.163.838 1,2-3.774-.226-9.05,1.05-10-2-.438,23.896-2.723,45.944-3,70h23c.61-8.391 1.429-16.571 1-26h13c.633-3.367-1.289-9.288 1-11h88c9.578,0 19.68-1.464 28,2-.09,1.576-2.551.782-2,3 4.275-.275 5.097,2.902 7,5 2.184,4.149 5.323,7.344 7,12-1.135.19-.555,1.003 0,1 1.117,1.55 3.25,2.083 3,5 1.606,2.27 1.064,4.146 3,4-.645,4.355 1.304,11.305-1,14v-10c-3.098,1.481-2.223,8.228 0,10-.217,34.682-3.629,72.155-4,108 2.391.609 7.255-1.255 8,1v11c13.641.026 25.648,1.685 40,1 2.61,3.39 6.257,5.743 8,10 .824,2.51-1.944,8.61 2,8 6.464,2.465 2.344-5.656 5-7 5.354-.646 7.831-4.17 14-4 .366-3.635 4.287-3.713 5-7-.502-4.165-3.498-5.835-4-10-3.935-2.065-7.756-4.244-10-8-1.515-2.485-1.397-6.603-4-8 2.168.169.453-3.547 1-5-1.494-1.507-4.482-1.518-4-5 2.358.309 1.86,3.473 5,3-1.631-3.153-3.52-6.399 1-8-1.191,2.638 4.808,2.579 0,3-.74,3.406 3.685,1.648 4,4-2.279-.279-3.759.241-4,2 1.795-.129 2.34.993 2,3-.839,1.16-1.319,2.682-1,5 2.5,1.833 4.265,4.402 6,7 3.796,1.203 7.872,2.128 12,3-.27-5.063-3.219-7.447-2-14 5.543-.543 9.819.182 11,4-1.556.261-.693,2.193 0,3-1.207,1.459-4.372.962-3,5 4.462,2.871 9.064,5.602 12,10-1.824,2.317 2.785,4.259 0,8 2.503,1.275 3.13-.509 4,1 .768,5.67.113,7.753 1,12 .924,3.742 5.698,3.636 5,9 .751,4.085-2.131,4.535-4,6 3.172,1.161 2.101,6.565 5,8 .564-5.102 3.917-7.417 9-8 .743-4.076-3.223-3.443-2-8 4.045.045 4.499-3.501 8-4-1.588-3.412-2.064-7.936-3-12 2.418-12.877.034-27.642 1-40 .314-1.352 1.423-1.91 1-4-1.236-3.235 3.236-.765 2-4-3.283-11.051-7.568-21.099-10-33h10c.095-1.571-.134-3.468 2-3 .6-5.067 5.758-5.575 6-11 .051-3.718-3.374-3.96-2-9 2.581-1.718 3.414-1.239 1-4 4.513.687 2.293-1.678 2-4 1.772-.229 5.008,1.008 4-2-2.145-11.756.669-24.412-1-35 1.809-3.858 4.353-6.98 7-10-.222-1.873-2.579-6.627 0-8 3.629-1.217 8.283,1.61 5,4 2.056,1.944 3.558,4.442 5,7 .702,5.298 2.776,9.225 2,16 .275,3.942-4.275,3.058-4,7 3.779,1.069-.036,5.931 2,7 3.922-5.309 4.679,3.78 9,4v-12c3.458.792 4.222-1.111 6-2 .315-2.352 4.74-.594 4-4 .646-3.979-2.646-4.021-2-8 1.762-.905 1.652-3.682 4-4-1.063-3.729 3.75-1.583 3-5v-82c-1.977-1.356-4.653-2.014-5-5 .089-7.169-.174-14.464 1-18 .821-3.821-4.822-1.179-4-5 .594-4.072.456-8.877 3-11 1.664-3.141-3.719-4.086-1-5 1.486-2.785 4.468,2.113 4-2 1.893-12.107.355-27.645 2-40 .299-1.966-1.35-1.983-2-3 2.958-1.752-.578-5.328 0-8 3.596-22.634 2.848-49.487 2-74 .09-1.576 2.55-.783 2-3-.011-24.345 1.8-46.866 3-70 .164-3.164-2.658-3.342-2-7-.153-6.377 1.334-8.492 0-14-.948-2.052-3.229-2.771-5-4 1.146-3.146-1.57-2.43-2-4-1.183-2.483-1.448-5.886-2-9-1.496-2.775-4.09,1.736-5-1 2.347-2.953-2.111-6.111-3-11 3.039-5.026 2.276-8.184 3-16 3.127-1.617-3.975-1.243-2-5 3.19-.593 3.093,1.877 5,0 1.211-6.211-4.79-5.21-5-10 1.129-1.204 2.854-1.812 2-5 .898-2.768-2.054-9.388 2-9v2c-1.135.19-.555,1.003 0,1 .615,1.454 1.208-.102 0,0v-1h2c.19,1.135 1.003.555 1,0 2.142,2.191 3.494,5.172 6,7 2.168.168.453-3.547 1-5 2.246.42.027,5.306 2,6 2.255-.745.391-5.609 1-8 2.27,1.064.381,6.286 1,9-3.056.723-3.644-1.022-6-1 .078,3.256 4.532,2.135 7,3 1.905-1.518-.075-8.652 1-11-2.601-2.632-6.083,1.413-7-2-2.007-.34-3.129.205-3,2-1.93-.404-.087-4.58-4-3 1.036-1.383 4.056-4.757-1-4 2.281-4.375-3.559-7.702 3-9 .703.983 5.548,5.007 1,5 .043-1.71-.743-2.59-2-3-1.301,1.332-.615,3.018 1,4-.187,5.187 8.784,1.216 9,6-1.352-.314-1.91-1.423-4-1-.19-1.135-1.003-.555-1,0-.807-.693-2.739-1.556-3,0 .294,2.333 2.706,2.333 3,0h1c.224.776.027,1.973 1,2 .055-1.052 1.282-.787 1,1 1.122.102 1.557-1.454 2,0 3.357-.914.495-1.859 1-5v-17c1.697-.97 2.569-2.764 2-6 3.67.004 3.832-3.501 6-5 4.223.89 5.647-1.02 7-3 1.857-1.768-.435-2.919-1-5 1.578-4.578-4.151-1.849-4-5-.839-1.161-1.319-2.681-1-5-4.386.052-5.943-2.723-9-4-.729-2.336-2.734-8.535 2-8 .299,1.966-1.35,1.983-2,3 3.638.638 3.929-2.071 4-5 .351-3.601 1.529-4.819 0-8 2.045-1.289 1.055-5.612 4-6-.056-3.277-2.844-3.823-2-8 .45-2.284 5.525-5.052 3-7-1.514,1.486-4.389,1.611-7,2 .26-4.136-1.187-4.022-4-3-.17-1.496.357-3.69-1-4-.015,1.311-2.774,1.274-3,0 .299-1.966-1.351-1.983-2-3-2.195-2.103-.207-4.446 1-6-4.06.393-6.968-.366-7-4-2.407-1.26-5.314-2.019-7-4 .489-3.156-1.802-3.531-1-7-4.835.168-7.643-1.69-10-4-1.874-1.904-.109-2.512 0-5-6.663-.337-6.644-7.356-9-12-1.555-3.555 3.396-.604 3-3-2.727-.006-4.493-6.084-2-8 8.517,8.15 18.714,14.62 29,21 2.4,3.933 6.6,6.067 9,10 3.105,2.561 3.658,7.675 7,10 .07-5.07-3.537-6.463-4-11v-14c-2.38-1.286-2.852-4.481-4-7 3.872.872 1.634-4.366 6-3 .845-.938 6.375-2.136 7,0 3.692,5.777-3.336,8.36-6,11-.393,6.393 1.467,10.533 2,16 1.598,1.402 2.555,3.445 3,6 3.658-.658 3.836,2.164 7,2-.25-4.416-3.334-5.999-4-10 2.348-.319 2.238-3.095 4-4 3.067-1.46 4.887.914 8,2-.075,1.742.223,3.11 1,4 .738,5.405-6.064,3.269-4,10 5.735,1.401 1.573-7.093 8-5 1.504-2.163 1.114-6.22 4-7 6.632,1.805 12.175-1.385 22-1-1.058,3.943-6.188,3.812-9,6 1.758.575 5.875-1.208 6,1 .088,3.421-6.088.579-6,4-1.403,2.263-4.047,3.286-5,6h-4c.772,4.439-3.308,4.026-5,6-.429,4.096.927,6.407 2,9 7.143,1.839 11.602-3.314 15-2-1.301,3.033.23,8.897-3,10v-6c-4.9-.234-7.571,1.762-13,1-2.462,1.184 2.048,3.777-1,5-.308,5.308 3.36,6.64 4,11-.489,3.156 1.802,3.531 1,7-.491,4.366 3.082,2.128 1,6 3.849.485 7.212,1.455 7,6 .548,4.214-7.818-.485-7,4-1.612,6.058 5.286,11.613 0,15-5.426-5.453-1.096-14.559-7-19v10c-1.354,2.312-4.02,3.313-3,8zm-27-105c3.537-.463 6.222-1.778 8-4-2.039-.294-1.961-2.706-4-3-.15,3.516-4.931,2.402-4,7zm8,110c-.277-.277-1.517.483-1,1 .277.277 1.517-.483 1-1zm46,21c1.571-.095 3.467.134 3-2h-2c.003,1.003-.811,1.19-1,2zm3,3c-.276-.277-1.518.483-1,1 .276.277 1.518-.483 1-1zm3,12c.127,1.793-1.225,2.109-1,4 2.785,1.602 2.766-4.319 1-4-1.682-3.538-3.124,3.264 0,0zm-75,5c.319-1.225-.161-6.176-1-3-.319,1.225.161,6.176 1,3zm-2,16c-.277-.277-1.517.483-1,1 .277.277 1.517-.483 1-1zm78,20c.057-.61.149-1.184 1-1-.113-1.22-.299-2.368-2-2 .156,1.177-.172,2.838 1,3zm-15,45c-.276-.277-1.518.483-1,1 .276.277 1.518-.483 1-1zm-52,204c-.277-.276-1.518.482-1,1 .277.276 1.518-.482 1-1zm-380,47c-.125-2.209-4.242-.425-6-1-1.567,3.437 6.695,4.746 6,1zm180,66c-.277-.276-1.518.482-1,1 .277.276 1.518-.482 1-1zm174,33c1.711-2.005 1.456-8.106-1-9 .619,2.714-1.27,7.937 1,9zm4,22c-.163,1.162.221,1.779 1,2 .547,1.453-1.168,5.168 1,5 .304-2.333 2.135-4.309-1-5 .163-1.162-.221-1.779-1-2 .309-2.358 3.473-1.86 3-5-1.987-.013-1.271-2.729-4-2-2.358,2.901-1.63,4.805 1,7zm3,0c.344,2.322.647,4.687 4,4-.605-2.062 1.614-6.947-2-6-.113,1.22-.299,2.368-2,2zm-70,113c1.706-1.613.916-5.154-1-6-.434,2.224-2.298,5.423 1,6zm11,18c.132-2.465.151-4.818-1-6-1.496.17-3.69-.357-4,1 2.507.827 3.163,3.503 5,5z" fill-rule="evenodd"></path>
	<path d="m767,6c2.039.294 1.961,2.706 4,3-1.778,2.222-4.463,3.537-8,4-.931-4.598 3.85-3.484 4-7z" fill="#fff" fill-rule="evenodd"></path>
	<path d="m790,118c.102,1.208-1.454.615 0,0z" fill="#fff" fill-rule="evenodd"></path>
	<path d="m770,124c-.517-.517.723-1.277 1-1 .517.517-.723,1.277-1,1z" fill="#fff" fill-rule="evenodd"></path>
	<path d="m818,142h2c.467,2.134-1.429,1.905-3,2 .189-.81 1.003-.997 1-2z" fill="#fff" fill-rule="evenodd"></path>
	<path d="m753,146c-.851-.184-.943.39-1,1-1.615-.982-2.301-2.668-1-4 1.257.41 2.043,1.29 2,3z" fill="#fff" fill-rule="evenodd"></path>
	<path d="m752,147c.057-.61.149-1.184 1-1-.057.61-.149,1.184-1,1z" fill-rule="evenodd"></path>
	<path d="m823,147c-.518-.517.724-1.277 1-1 .518.517-.724,1.277-1,1z" fill-rule="evenodd"></path>
	<path d="m819,148c-.518-.517.724-1.277 1-1 .518.517-.724,1.277-1,1z" fill="#fff" fill-rule="evenodd"></path>
	<path d="m749,150c2.599,2.63-1.616.787-1,4-3.008,1.008-1.772-2.228-2-4 .41-1.705 1.29.21 3,0z" fill-rule="evenodd"></path>
	<path d="m820,152c-1.94.396-1.461-4.555 1-3-.055,1.278-1.282,1.385-1,3z" fill="#fff" fill-rule="evenodd"></path>
	<path d="m824,153c-3.134-3.297 2.462-6.217 0,0z" fill-rule="evenodd"></path>
	<path d="m749,150c5.056-.757 2.036,2.617 1,4h-2c-.616-3.213 3.599-1.37 1-4z" fill="#fff" fill-rule="evenodd"></path>
	<path d="m820,154c.729,2.729-1.987,2.013-2,4-2.251.416.149,5.483-3,5-2.1.279 1.449,2.671-1,4-3.499-1.404-6.401,2.805-8,0 2.397-2.671 2.949-.982 7-2-.609-2.391 1.256-7.255-1-8-.729,2.271 1.802,7.802-2,7-.204-1.89.675-9.88-1-7 .16,3.827.597,7.93-3,8-.87-6.71 1.999-9.766 2-13 3.606-.393 6.706-1.294 10-2 .493,3.16-4.962.371-4,4 .547,1.453-1.168,5.168 1,5 .016-2.651-.555-5.888 2-6 .156,1.177-.172,2.838 1,3-.279-2.917.241-3.438 2-2zm-11-1c-1.008,3.008 2.228,1.772 4,2-.156-1.177.172-2.838-1-3-.56,2.078-1.56,2.119-3,1zm-1,5c-.276-.277-1.518.483-1,1 .276.277 1.518-.483 1-1zm0,3c.003-.555-.811-1.135-1,0-.003.555.811,1.135 1,0z" fill="#fff" fill-rule="evenodd"></path>
	<path d="m756,152c-.294,2.333-2.706,2.333-3,0 .261-1.556 2.193-.693 3,0z" fill="#fff" fill-rule="evenodd"></path>
	<path d="m756,152c-.003-.555.81-1.135 1,0h-1z" fill="#fff" fill-rule="evenodd"></path>
	<path d="m812,152c1.172.162.844,1.823 1,3-1.772-.228-5.008,1.008-4-2 1.44,1.119 2.44,1.078 3-1z" fill-rule="evenodd"></path>
	<path d="m748,155v-1h2c.529.804 1.043,1.624 1,3h-1c-.443-.89-.878-1.789-2-2z" fill-rule="evenodd"></path>
	<path d="m750,154c3.913-1.58 2.07,2.596 4,3-.129-1.795.993-2.34 3-2 .917,3.413 4.399-.632 7,2-1.075,2.348.905,9.482-1,11-2.468-.865-6.922.256-7-3 2.356-.022 2.944,1.723 6,1-.619-2.714 1.27-7.936-1-9-.609,2.391 1.255,7.255-1,8-1.973-.694.246-5.58-2-6-.547,1.453 1.168,5.168-1,5-2.506-1.828-3.858-4.809-6-7 .043-1.376-.471-2.196-1-3zm7,2c-.277-.277-1.517.483-1,1 .277.277 1.517-.483 1-1zm0,4c.003-.555-.81-1.135-1,0-.003.555.81,1.135 1,0z" fill="#fff" fill-rule="evenodd"></path>
	<path d="m823,156c.224-.776.027-1.973 1-2-.225.776-.027,1.973-1,2z" fill-rule="evenodd"></path>
	<path d="m748,155c1.122.211 1.557,1.11 2,2h-2v-2z" fill="#fff" fill-rule="evenodd"></path>
	<path d="m756,157c-.517-.517.723-1.277 1-1 .517.517-.723,1.277-1,1z" fill-rule="evenodd"></path>
	<path d="m748,157v1c-.555.003-1.135-.81 0-1z" fill="#fff" fill-rule="evenodd"></path>
	<path d="m750,157h1c.003.555-.81,1.135-1,0z" fill="#fff" fill-rule="evenodd"></path>
	<path d="m748,158c1.208-.102.615,1.454 0,0z" fill="#fff" fill-rule="evenodd"></path>
	<path d="m807,159c-.518-.517.724-1.277 1-1 .518.517-.724,1.277-1,1z" fill-rule="evenodd"></path>
	<path d="m818,158c3.507-.879 1.743,3.296 0,3v-3z" fill="#fff" fill-rule="evenodd"></path>
	<path d="m823,159c-3.124,3.264-1.682-3.538 0,0z" fill="#fff" fill-rule="evenodd"></path>
	<path d="m756,160c.19-1.135 1.003-.555 1,0-.19,1.135-1.003.555-1,0z" fill-rule="evenodd"></path>
	<path d="m823,159c1.766-.319 1.785,5.602-1,4-.225-1.891 1.127-2.207 1-4z" fill="#fff" fill-rule="evenodd"></path>
	<path d="m747,161c.839-3.176 1.319,1.775 1,3-.839,3.176-1.319-1.775-1-3z" fill="#fff" fill-rule="evenodd"></path>
	<path d="m807,161c.189-1.135 1.003-.555 1,0-.189,1.135-1.003.555-1,0z" fill-rule="evenodd"></path>
	<path d="m745,181c-.517-.517.723-1.277 1-1 .517.517-.723,1.277-1,1z" fill="#fff" fill-rule="evenodd"></path>
	<path d="m823,197c1.701-.368 1.887.78 2,2-.851-.184-.943.39-1,1-1.172-.162-.844-1.823-1-3z" fill="#fff" fill-rule="evenodd"></path>
	<path d="m808,246c-.518-.517.724-1.277 1-1 .518.517-.724,1.277-1,1z" fill="#fff" fill-rule="evenodd"></path>
	<path d="m818,448c-.518-.518.724-1.276 1-1 .518.518-.724,1.276-1,1z" fill-rule="evenodd"></path>
	<path d="m756,450c-.518-.518.723-1.276 1-1 .518.518-.723,1.276-1,1z" fill="#fff" fill-rule="evenodd"></path>
	<path d="m749,455c-.518-.518.723-1.276 1-1 .518.518-.723,1.276-1,1z" fill-rule="evenodd"></path>
	<path d="m511,475c1.545,4 2.025,12.096 0,14-1.017-.649-1.034-2.299-3-2 3.028-1.972 2.022-7.979 3-12z" fill-rule="evenodd"></path>
	<path d="m508,527c-.898-2.768 2.054-9.388-2-9 3.081-.586 1.151-6.183 3-8-.36-7.359.258-13.742 1-20 2.018,7.033-.492,18.163-1,26-.003.555.81,1.135 1,0 1.386.091 1.05,2.551-1,2-.619,2.714 1.27,7.937-1,9z" fill-rule="evenodd"></path>
	<path d="m371,495c1.758.575 5.875-1.209 6,1 .695,3.746-7.567,2.437-6-1z" fill="#fff" fill-rule="evenodd"></path>
	<path d="m390,496c-.163,1.162.221,1.779 1,2-.184.851.39.943 1,1-.368,1.701.78,1.887 2,2-.184.851.39.943 1,1-.184.851.39.943 1,1-.162,1.172-1.823.844-3,1-.168,2.169 3.547.453 5,1-.184.851.39.943 1,1-1.71,1.539-3.64-.35-7,1-2.536-3.131-5.635-5.698-8-9-2.062-.605-6.947,1.613-6-2 2.673-2.606 8.817-.2 12,0z" fill="#fff" fill-rule="evenodd"></path>
	<path d="m390,496c.779.221 1.163.838 1,2-.779-.221-1.163-.838-1-2z" fill-rule="evenodd"></path>
	<path d="m391,498c.61.057 1.184.149 1,1-.61-.057-1.184-.149-1-1z" fill-rule="evenodd"></path>
	<path d="m392,499c1.122.211 1.557,1.109 2,2-1.22-.113-2.368-.299-2-2z" fill-rule="evenodd"></path>
	<path d="m394,501c.61.057 1.184.149 1,1-.61-.057-1.184-.149-1-1z" fill-rule="evenodd"></path>
	<path d="m395,502c.61.057 1.184.149 1,1-.61-.057-1.184-.149-1-1z" fill-rule="evenodd"></path>
	<path d="m396,503c1.122.211 1.557,1.109 2,2-1.453-.547-5.168,1.169-5-1 1.177-.156 2.838.172 3-1z" fill-rule="evenodd"></path>
	<path d="m398,505c.61.057 1.184.149 1,1-.61-.057-1.184-.149-1-1z" fill-rule="evenodd"></path>
	<path d="m401,508c-.184.851.39.943 1,1-.044,1.71.743,2.59 2,3-.184.851.39.943 1,1-.184.851.39.943 1,1-.184.851.39.943 1,1-.184.851.39.943 1,1-.431,2.236-4.928.405-7,1-1-3.368-7.345-6.609-6-9h6z" fill="#fff" fill-rule="evenodd"></path>
	<path d="m401,508c.61.057 1.184.149 1,1-.61-.057-1.184-.149-1-1z" fill-rule="evenodd"></path>
	<path d="m402,509c1.257.41 2.044,1.289 2,3-1.257-.41-2.044-1.29-2-3z" fill-rule="evenodd"></path>
	<path d="m404,512c.61.057 1.184.149 1,1-.61-.057-1.184-.149-1-1z" fill-rule="evenodd"></path>
	<path d="m405,513c.61.057 1.184.149 1,1-.61-.057-1.184-.149-1-1z" fill-rule="evenodd"></path>
	<path d="m406,514c.61.057 1.184.149 1,1-.61-.057-1.184-.149-1-1z" fill-rule="evenodd"></path>
	<path d="m407,515c.61.057 1.184.149 1,1-.61-.057-1.184-.149-1-1z" fill-rule="evenodd"></path>
	<path d="m410,518c-.184.851.39.943 1,1-.184.851.39.943 1,1-.184.851.39.943 1,1v2c-1.454.615.102,1.209 0,0 2.039.294 1.961,2.706 4,3-.184.851.39.943 1,1v1h-7c2.303-2.211-1.736-2.502-3-4-.622-2.711-4.178-2.489-4-6 3.15,1.121 2.264.09 6,0z" fill="#fff" fill-rule="evenodd"></path>
	<path d="m410,518c.61.057 1.184.149 1,1-.61-.057-1.184-.149-1-1z" fill-rule="evenodd"></path>
	<path d="m411,519c.61.057 1.184.149 1,1-.61-.057-1.184-.149-1-1z" fill-rule="evenodd"></path>
	<path d="m412,520c.61.057 1.184.149 1,1-.61-.057-1.184-.149-1-1z" fill-rule="evenodd"></path>
	<path d="m413,521c2.655.345 3.375,2.625 4,5-2.039-.294-1.961-2.706-4-3v-2z" fill-rule="evenodd"></path>
	<path d="m413,523c.102,1.209-1.454.615 0,0z" fill-rule="evenodd"></path>
	<path d="m417,526c.61.057 1.184.149 1,1-.61-.057-1.184-.149-1-1z" fill-rule="evenodd"></path>
	<path d="m508,527c.114,10.114-.037,19.963-2,28v-7c1.236-3.236-3.236-.764-2-4 5.487-1.514 1.04-12.96 4-17z" fill-rule="evenodd"></path>
	<path d="m506,555c.157,1.177-.172,2.839 1,3-1.102,4.097-3.806-3.189-1-3z" fill-rule="evenodd"></path>
	<path d="m509,558c-.517-.518.723-1.276 1-1 .517.518-.723,1.276-1,1z" fill-rule="evenodd"></path>
	<path d="m556,563c-.518-.518.723-1.276 1-1 .518.518-.723,1.276-1,1z" fill="#fff" fill-rule="evenodd"></path>
	<path d="m572,582v1c-.555.003-1.135-.81 0-1z" fill="#fff" fill-rule="evenodd"></path>
	<path d="m572,583v-1c.555-.003 1.135.811 0,1z" fill-rule="evenodd"></path>
	<path d="m877,586c.228-1.772-1.008-5.008 2-4 .279,2.279-.241,3.759-2,4z" fill-rule="evenodd"></path>
	<path d="m730,586c2.456.894 2.711,6.995 1,9-2.27-1.063-.381-6.286-1-9z" fill="#fff" fill-rule="evenodd"></path>
	<path d="m577,606c-2.223-1.772-3.098-8.519 0-10v10z" fill="#fff" fill-rule="evenodd"></path>
	<path d="m855,607c-.15-2.483.517-4.15 2-5 .147,2.48.187,4.853-2,5z" fill-rule="evenodd"></path>
	<path d="m735,617c-2.63-2.195-3.358-4.099-1-7 2.729-.729 2.013,1.987 4,2 .473,3.14-2.691,2.642-3,5z" fill="#fff" fill-rule="evenodd"></path>
	<path d="m740,615c3.614-.947 1.395,3.938 2,6-3.353.687-3.656-1.678-4-4 1.701.368 1.887-.78 2-2z" fill="#fff" fill-rule="evenodd"></path>
	<path d="m735,617c.779.221 1.163.838 1,2-.779-.221-1.163-.838-1-2z" fill="#fff" fill-rule="evenodd"></path>
	<path d="m736,619c3.135.691 1.304,2.667 1,5-2.168.168-.453-3.547-1-5z" fill="#fff" fill-rule="evenodd"></path>
	<path d="m863,637c-.518-.518.724-1.276 1-1 .518.518-.724,1.276-1,1z" fill-rule="evenodd"></path>
	<path d="m667,724c1.916.846 2.706,4.387 1,6-3.298-.577-1.434-3.776-1-6z" fill="#fff" fill-rule="evenodd"></path>
	<path d="m674,743c.31-1.357 2.504-.83 4-1 1.151,1.182 1.132,3.535 1,6-1.837-1.497-2.493-4.173-5-5z" fill="#fff" fill-rule="evenodd"></path>

</svg>
