<?xml version="1.0" encoding="UTF-8"?>
<svg width="164px" height="55px" viewBox="0 0 164 55" version="1.1" xmlns="http://www.w3.org/2000/svg" xmlns:xlink="http://www.w3.org/1999/xlink">
    <title>Group 3</title>
    <defs>
        <linearGradient x1="50%" y1="0%" x2="50%" y2="100%" id="linearGradient-1">
            <stop stop-color="#F5515F" offset="0%"></stop>
            <stop stop-color="#9F041B" offset="100%"></stop>
        </linearGradient>
    </defs>
    <g id="Page-1" stroke="none" stroke-width="1" fill="none" fill-rule="evenodd">
        <g id="Group-3" fill-rule="nonzero">
            <g id="Netlify_logo">
                <path d="M69.37,27.978 L69.493,30.176 C70.896,28.476 72.738,27.626 75.018,27.626 C78.969,27.626 80.98,29.894 81.05,34.43 L81.05,46.998 L76.79,46.998 L76.79,34.676 C76.79,33.469 76.53,32.576 76.01,31.995 C75.49,31.415 74.639,31.125 73.458,31.125 C71.739,31.125 70.458,31.905 69.618,33.463 L69.618,46.998 L65.356,46.998 L65.356,27.978 L69.372,27.978 L69.37,27.978 Z M93.748,47.35 C91.048,47.35 88.858,46.498 87.181,44.793 C85.503,43.088 84.664,40.817 84.664,37.981 L84.664,37.454 C84.664,35.556 85.029,33.859 85.76,32.365 C86.49,30.871 87.517,29.708 88.838,28.875 C90.159,28.044 91.632,27.628 93.258,27.628 C95.841,27.628 97.838,28.454 99.246,30.106 C100.656,31.759 101.36,34.096 101.36,37.12 L101.36,38.843 L88.96,38.843 C89.09,40.413 89.612,41.655 90.53,42.569 C91.448,43.483 92.603,43.94 93.994,43.94 C95.946,43.94 97.536,43.15 98.764,41.567 L101.061,43.765 C100.301,44.901 99.287,45.783 98.019,46.41 C96.75,47.037 95.327,47.35 93.749,47.35 L93.748,47.35 Z M93.24,31.056 C92.07,31.056 91.127,31.466 90.408,32.286 C89.688,33.106 89.23,34.249 89.031,35.714 L97.151,35.714 L97.151,35.397 C97.057,33.967 96.677,32.887 96.011,32.154 C95.344,31.422 94.421,31.056 93.24,31.056 L93.24,31.056 Z M110.005,23.356 L110.005,27.979 L113.355,27.979 L113.355,31.143 L110.005,31.143 L110.005,41.76 C110.005,42.486 110.149,43.01 110.435,43.333 C110.721,43.655 111.233,43.816 111.97,43.816 C112.471768,43.8145986 112.971714,43.7555446 113.46,43.64 L113.46,46.945 C112.49,47.215 111.555,47.349 110.654,47.349 C107.381,47.349 105.744,45.539 105.744,41.918 L105.744,31.142 L102.62,31.142 L102.62,27.978 L105.742,27.978 L105.742,23.355 L110.003,23.355 L110.005,23.356 Z M121.142,46.999 L116.88,46.999 L116.88,19.999 L121.142,19.999 L121.142,46.999 Z M130.314,46.999 L126.052,46.999 L126.052,27.979 L130.314,27.979 L130.314,46.999 Z M125.789,23.039 C125.789,22.384 125.996,21.839 126.411,21.405 C126.827,20.972 127.42,20.755 128.191,20.755 C128.963,20.755 129.559,20.972 129.981,21.405 C130.401,21.839 130.611,22.384 130.611,23.04 C130.611,23.684 130.401,24.22 129.981,24.648 C129.559,25.076 128.963,25.29 128.191,25.29 C127.42,25.29 126.827,25.076 126.411,24.648 C125.996,24.221 125.789,23.684 125.789,23.04 L125.789,23.039 Z M136.452,46.999 L136.452,31.142 L133.558,31.142 L133.558,27.978 L136.452,27.978 L136.452,26.238 C136.452,24.128 137.036,22.5 138.205,21.351 C139.375,20.203 141.011,19.629 143.115,19.629 C143.864,19.629 144.659,19.734 145.501,19.945 L145.396,23.285 C144.858209,23.1851846 144.311934,23.138294 143.765,23.145 C141.73,23.145 140.713,24.193 140.713,26.291 L140.713,27.978 L144.571,27.978 L144.571,31.142 L140.713,31.142 L140.713,46.998 L136.452,46.998 L136.452,46.999 Z M154.322,40.882 L158.18,27.979 L162.722,27.979 L155.182,49.882 C154.024,53.081 152.06,54.681 149.289,54.681 C148.669,54.681 147.985,54.575 147.237,54.364 L147.237,51.059 L148.044,51.112 C149.119,51.112 149.929,50.916 150.473,50.523 C151.016,50.131 151.446,49.472 151.762,48.546 L152.375,46.911 L145.711,27.979 L150.306,27.979 L154.322,40.882 Z" id="Shape" fill="#C5263A"></path>
                <path d="M39.5655839,19.2379625 L39.5458455,19.2295908 C39.5345665,19.2254049 39.5232874,19.221219 39.5134182,19.2114519 C39.4806319,19.1766001 39.466048,19.1286621 39.4739414,19.0816894 L40.5637824,12.4875234 L45.674615,17.5468645 L40.3593491,19.7849183 C40.3445777,19.7908133 40.3287457,19.7936621 40.3128229,19.7933223 L40.2916746,19.7933223 C40.2846252,19.7891042 40.2775758,19.783523 40.2634769,19.7695701 C40.0656689,19.5516046 39.8291196,19.3714174 39.5655839,19.2379625 Z M46.9787585,18.8361175 L52.4434722,24.2442824 C53.5784295,25.3688905 54.1466131,25.9297992 54.3538662,26.5800069 C54.3848837,26.6762823 54.4102616,26.7725576 54.43,26.8716236 L41.3702365,21.3978798 C41.3632186,21.3950119 41.3561688,21.3922211 41.3490883,21.389508 C41.2969225,21.3685786 41.2362975,21.3448586 41.2362975,21.2918373 C41.2362975,21.2388161 41.2983324,21.2137008 41.3504982,21.1927714 L41.3674168,21.1857949 L46.9787585,18.8361175 Z M54.2072382,28.6073711 C53.9252612,29.1320021 53.3754061,29.6761674 52.4448821,30.5984576 L46.2836853,36.6945032 L38.3150161,35.0522405 L38.2727195,35.0438687 C38.2022253,35.0327064 38.1275014,35.0201487 38.1275014,34.9573604 C38.0663249,34.2997449 37.7318452,33.6968365 37.2040268,33.292773 C37.1715994,33.2606812 37.1800587,33.2104506 37.1899279,33.1644058 C37.1899279,33.1574294 37.1899279,33.1504529 37.1927477,33.1448717 L38.6914553,24.039174 L38.6970949,24.0084775 C38.7055542,23.9387127 38.7182431,23.8577856 38.7816879,23.8577856 C39.4304659,23.7779124 40.0196845,23.443623 40.4171544,22.9299141 C40.4298433,22.9159612 40.4383027,22.9006129 40.4552213,22.8922412 C40.5003376,22.8713117 40.5539132,22.8922412 40.6004394,22.9117753 L54.2058283,28.6073711 L54.2072382,28.6073711 Z M44.866751,38.096775 L34.7353184,48.1233677 L36.4694768,37.5749346 L36.4722965,37.5609816 C36.4737064,37.5470287 36.4765262,37.5330757 36.4807559,37.520518 C36.4948547,37.487031 36.5315117,37.473078 36.5667588,37.4591251 L36.5836774,37.4521486 C36.9633816,37.2918217 37.2992097,37.0445894 37.5635474,36.7307809 C37.5973847,36.6917126 37.6382713,36.6540396 37.6904371,36.6470631 C37.7039763,36.6448758 37.7177844,36.6448758 37.7313237,36.6470631 L44.8653411,38.0981703 L44.866751,38.096775 Z M32.5908835,50.245612 L31.4488768,51.3758013 L18.8233579,33.3178883 C18.8187922,33.3112832 18.8140917,33.3047705 18.809259,33.2983542 C18.7895206,33.2718436 18.7683724,33.245333 18.772602,33.2146365 C18.772602,33.1923117 18.7881108,33.1727776 18.8036195,33.1560341 L18.8177183,33.1378952 C18.8557852,33.0820834 18.8882126,33.0262716 18.9234597,32.9662739 L18.9516574,32.9174385 L18.9558871,32.9132527 C18.9756254,32.8797656 18.9939539,32.8476738 19.0277912,32.8295349 C19.0573988,32.815582 19.0982854,32.8211632 19.1307128,32.8281396 L33.1181805,35.682914 C33.157291,35.6889331 33.1941855,35.7047873 33.2253317,35.7289588 C33.2436602,35.7470976 33.2478899,35.7666317 33.2521195,35.7889565 C33.4498991,36.5295239 33.986082,37.136037 34.7014812,37.4284286 C34.7409579,37.4479627 34.7240393,37.4912168 34.7057108,37.5372616 C34.6965663,37.5574419 34.6894817,37.5784757 34.6845625,37.6000499 C34.5083269,38.6604744 32.9969304,47.7829157 32.5908835,50.245612 Z M30.2053583,52.6050565 C29.3636571,53.4296761 28.8673776,53.8664036 28.3062434,54.0422108 C27.7529709,54.2153533 27.1591948,54.2153533 26.6059223,54.0422108 C25.948916,53.8357071 25.3807324,53.2747983 24.245775,52.1501902 L11.5666805,39.6022988 L14.8785,34.5192377 C14.8940088,34.4941223 14.9095175,34.4717976 14.9348954,34.4536588 C14.9701426,34.4285435 15.0208984,34.4397058 15.063195,34.4536588 C15.8233491,34.6806194 16.6395076,34.6396914 17.3725864,34.3378493 C17.4106532,34.3239604 17.4487201,34.3141292 17.4783277,34.3406398 C17.4931333,34.3540143 17.5063751,34.3689912 17.5178045,34.3852893 L30.2053583,52.6064518 L30.2053583,52.6050565 Z M10.3443103,38.3925777 L7.43571787,35.5140833 L13.1795888,33.0890599 C13.1942706,33.0827241 13.2100984,33.0794014 13.226115,33.0792928 C13.2740511,33.0792928 13.3022488,33.1267329 13.3276267,33.169987 C13.3853502,33.2578744 13.446491,33.3435167 13.5109117,33.4267214 L13.5292402,33.4490461 C13.5461588,33.4727661 13.5348798,33.4964861 13.5179611,33.5188109 L10.3457202,38.3925777 L10.3443103,38.3925777 Z M6.14849299,34.2401786 L2.46869351,30.5984576 C1.84270463,29.9789465 1.3887217,29.5296613 1.0729075,29.1431645 L12.2617537,31.4398207 C12.2758089,31.4423986 12.28991,31.4447245 12.3040503,31.4467972 C12.3731346,31.4579596 12.4492684,31.4705172 12.4492684,31.5347008 C12.4492684,31.6044656 12.3660852,31.6365574 12.295591,31.663068 L12.2631636,31.6770209 L6.14849299,34.2401786 Z M0.43,27.2706781 C0.442751219,27.0360862 0.48538501,26.8040268 0.556889637,26.5800069 C0.765552597,25.9297992 1.33232631,25.3688905 2.46869351,24.2442824 L7.17770894,19.5839958 C9.34587659,22.6981273 11.5199228,25.8082461 13.6998363,28.9143361 C13.7379032,28.9645667 13.7801997,29.0203785 13.7364933,29.0622374 C13.5306501,29.2868799 13.3248069,29.5324519 13.1795888,29.7989533 C13.1638348,29.8332092 13.1395854,29.8629674 13.1090945,29.8854617 C13.090766,29.896624 13.0710276,29.8924381 13.0498794,29.8882523 L13.0470596,29.8882523 L0.43,27.2692828 L0.43,27.2706781 Z M8.438146,18.3366017 L14.7671191,12.0703301 C15.3635004,12.3284597 17.5304935,13.2340065 19.4662654,14.0432778 C20.9325456,14.6572078 22.2691165,15.2153259 22.6892622,15.3967143 C22.7315587,15.4134579 22.7696256,15.4302014 22.7879541,15.4720603 C22.7992332,15.4971756 22.7935936,15.5292674 22.7879541,15.555778 C22.5843538,16.4746081 22.8614687,17.433163 23.5253239,18.106378 C23.5676204,18.1482368 23.5253239,18.2082345 23.4886669,18.2598605 L23.4689285,18.2891617 L17.0398535,28.144133 C17.0229349,28.1720389 17.0074262,28.1957589 16.9792285,28.2138978 C16.9453912,28.2348272 16.8974552,28.2250601 16.8579784,28.2152931 C16.6079282,28.1504591 16.3508728,28.1157901 16.0924109,28.1120412 C15.8611898,28.1120412 15.6102303,28.1539001 15.356451,28.1999448 L15.3550411,28.1999448 C15.3268434,28.2041307 15.3014655,28.2097119 15.2789073,28.1929684 C15.2539924,28.1728177 15.2325631,28.1487825 15.2154625,28.1218083 L8.43673612,18.3366017 L8.438146,18.3366017 Z M16.0487045,10.8047972 L24.245775,2.69254976 C25.3807324,1.56933697 25.948916,1.00703293 26.6059223,0.801924505 C27.1591948,0.628782027 27.7529709,0.628782027 28.3062434,0.801924505 C28.9632498,1.00703293 29.5314334,1.56933697 30.6663907,2.69254976 L32.4428456,4.45062196 L26.6129717,13.3860936 C26.5985496,13.4121062 26.5788731,13.4349037 26.5551664,13.4530678 C26.5199193,13.4767878 26.4705734,13.4670208 26.4282768,13.4530678 C25.4951378,13.1728173 24.4823769,13.3659652 23.7212979,13.9693271 C23.683231,14.0083954 23.6268356,13.9860707 23.5788995,13.9651412 C22.8175617,13.6372468 16.8960453,11.1605975 16.0487045,10.8047972 L16.0487045,10.8047972 Z M33.6807245,5.67569131 L39.0636649,11.0029291 L37.7665708,18.9533223 L37.7665708,18.9742517 C37.7654127,18.992371 37.7616138,19.0102295 37.7552918,19.0272729 C37.7411929,19.0551788 37.7129952,19.06076 37.6847975,19.0691318 C37.4074719,19.1522656 37.1462784,19.2810392 36.9121806,19.4500474 C36.9021164,19.4571455 36.8926829,19.465081 36.8839829,19.4737674 C36.8684742,19.490511 36.8529655,19.5058592 36.8275875,19.5087257 C36.8069326,19.5092814 36.7863485,19.5059651 36.7669625,19.4988828 L28.5642524,16.0497126 L28.5487436,16.0427361 C28.4965779,16.0218066 28.434543,15.9966913 28.434543,15.9436701 C28.3863295,15.4912934 28.2370356,15.0551956 27.9974787,14.6669748 C27.9580019,14.6027912 27.9142954,14.5358171 27.9481327,14.4702382 L33.6807245,5.67569131 Z M28.1370573,17.6836035 L35.8265693,20.9067358 C35.8688658,20.9262699 35.915392,20.9444088 35.9337205,20.9876629 C35.941058,21.0136763 35.941058,21.0411814 35.9337205,21.0671948 C35.9111624,21.1788184 35.891424,21.3057903 35.891424,21.4341575 L35.891424,21.6476377 C35.891424,21.7006589 35.8364385,21.7229836 35.7856826,21.743913 L35.7701739,21.7494942 C34.5520334,22.2643582 18.6682705,28.9673573 18.6443025,28.9673573 C18.6203345,28.9673573 18.5949565,28.9673573 18.5709885,28.9436373 C18.5286919,28.9017784 18.5709885,28.843176 18.6090554,28.7901548 C18.6157854,28.780958 18.6223657,28.7716548 18.6287938,28.7622489 L24.9478977,19.0788988 L24.9591768,19.0621553 C24.9958338,19.0035529 25.0381303,18.937974 25.1058048,18.937974 L25.1692496,18.9477411 C25.3130579,18.9672752 25.4399475,18.9854141 25.568247,18.9854141 C26.5269687,18.9854141 27.4151962,18.5235713 27.9509525,17.7338341 C27.9637171,17.7127451 27.9799138,17.6938874 27.9988885,17.6780223 C28.0369554,17.6501164 28.0933508,17.6640693 28.1370573,17.6836035 L28.1370573,17.6836035 Z M19.3309164,30.4993916 L36.6443025,23.1922297 C36.6443025,23.1922297 36.6696804,23.1922297 36.6936485,23.2159497 C36.7881108,23.3094345 36.8684742,23.3722228 36.9460179,23.4308252 L36.9840847,23.4545452 C37.0193319,23.4740793 37.054579,23.4964041 37.0573988,23.5326817 C37.0573988,23.5466347 37.0573988,23.5550065 37.054579,23.5675641 L35.5713801,32.583963 L35.5657406,32.6202406 C35.5558714,32.6900054 35.5460022,32.7695372 35.4797376,32.7695372 C34.6769407,32.8231632 33.9525948,33.2653862 33.5439657,33.9513524 L33.5369163,33.9625148 C33.5171779,33.9946066 33.4988494,34.0253031 33.466422,34.0420466 C33.4368144,34.0559996 33.3987476,34.0504184 33.3677301,34.0434419 L19.5607277,31.2249452 C19.5466288,31.2221546 19.3464252,30.5007869 19.3309164,30.4993916 L19.3309164,30.4993916 Z" id="Shape" fill="url(#linearGradient-1)"></path>
            </g>
            <path d="M69.6952784,16.1536733 C73.0806219,16.1536733 74.7732936,14.1985282 74.7732936,10.288238 C74.7732936,6.46238044 73.0806219,4.54945168 69.6952784,4.54945168 L69.6952784,4.54945168 L66.5342649,4.54945168 L66.5342649,16.1536733 L69.6952784,16.1536733 Z M69.6680869,14.7763646 L67.8530533,14.7763646 L67.8530533,5.92676039 L69.6680869,5.92676039 C71.118301,5.92676039 72.1051263,6.30670762 72.628563,7.06660208 C73.1519996,7.82649654 73.4137179,8.90037516 73.4137179,10.288238 C73.4137179,11.7130401 73.1508666,12.8172617 72.625164,13.6009029 C72.0994614,14.384544 71.113769,14.7763646 69.6680869,14.7763646 L69.6680869,14.7763646 Z M85.0899091,16.1536733 L85.0899091,14.7763646 L78.9786164,14.7763646 L78.9786164,10.8502432 L84.4781,10.8502432 L84.4781,9.47293453 L78.9786164,9.47293453 L78.9786164,5.92676039 L84.8587812,5.92676039 L84.8587812,4.54945168 L77.6598279,4.54945168 L77.6598279,16.1536733 L85.0899091,16.1536733 Z M89.3360191,16.1536733 L89.3360191,11.5151509 L91.8444362,11.5151509 C93.0544586,11.5151509 93.9789701,11.2117208 94.6179707,10.6048607 C95.2569712,9.99800049 95.5764715,9.10881844 95.5764715,7.93731448 C95.5764715,7.20908229 95.4155884,6.55077094 95.0938222,5.96238044 C94.7720559,5.37398994 94.3358587,4.99140419 93.7852306,4.81462319 C93.2346024,4.63784218 92.5514156,4.54945168 91.7356702,4.54945168 L91.7356702,4.54945168 L88.0172307,4.54945168 L88.0172307,16.1536733 L89.3360191,16.1536733 Z M91.858032,10.1378422 L89.3360191,10.1378422 L89.3360191,5.92676039 L91.8308405,5.92676039 C92.4063942,5.92676039 92.8471233,5.97425379 93.1530279,6.0692406 C93.4589324,6.16422741 93.7115869,6.39114034 93.9109913,6.74997939 C94.1103957,7.10881844 94.210098,7.52042794 94.210098,7.98480788 C94.210098,8.6813778 94.0299542,9.21435933 93.6696666,9.58375247 C93.3093791,9.95314561 92.7055009,10.1378422 91.858032,10.1378422 L91.858032,10.1378422 Z M104.540309,16.1536733 L104.540309,14.7763646 L99.6934218,14.7763646 L99.6934218,4.54945168 L98.3746334,4.54945168 L98.3746334,16.1536733 L104.540309,16.1536733 Z M111.505571,16.3515625 C112.901402,16.3515625 114.043445,15.8027498 114.931701,14.7051245 C115.819957,13.6074992 116.264086,12.1563118 116.264086,10.3515625 C116.264086,8.54681316 115.819957,7.09562582 114.931701,5.99800049 C114.043445,4.90037516 112.901402,4.3515625 111.505571,4.3515625 C110.105208,4.3515625 108.958632,4.90037516 108.065844,5.99800049 C107.173056,7.09562582 106.726662,8.54681316 106.726662,10.3515625 C106.726662,12.1510348 107.173056,13.6009029 108.065844,14.7011667 C108.958632,15.8014306 110.105208,16.3515625 111.505571,16.3515625 Z M111.491975,15.0375783 C110.504016,15.0375783 109.690537,14.6246496 109.051536,13.7987921 C108.412536,12.9729345 108.093036,11.823858 108.093036,10.3515625 C108.093036,8.87398994 108.413669,7.72359416 109.054935,6.90037516 C109.696202,6.07715617 110.517612,5.66554667 111.519166,5.66554667 C112.502593,5.66554667 113.31154,6.07715617 113.946009,6.90037516 C114.580478,7.72359416 114.897712,8.87398994 114.897712,10.3515625 C114.897712,11.8291351 114.579345,12.9795308 113.94261,13.8027498 C113.305875,14.6259688 112.488997,15.0375783 111.491975,15.0375783 Z M123.276932,16.1536733 L123.276932,11.238106 L127.19251,4.54945168 L125.588211,4.54945168 L122.624336,9.8924596 L119.646865,4.54945168 L118.042566,4.54945168 L121.958144,11.238106 L121.958144,16.1536733 L123.276932,16.1536733 Z M133.206068,16.3515625 C134.302793,16.3515625 135.192182,16.0217472 135.874236,15.3621166 C136.55629,14.702486 136.897316,13.8739899 136.897316,12.8766285 C136.897316,12.0903488 136.711508,11.4636997 136.33989,10.9966812 C135.968273,10.5296628 135.521879,10.1853356 135.000708,9.9636997 C134.479538,9.74206382 133.775957,9.51778941 132.889967,9.29087648 C132.003977,9.06396356 131.398966,8.82913506 131.074934,8.586391 C130.750901,8.34364693 130.588885,7.97953084 130.588885,7.49404271 C130.588885,6.96106118 130.790556,6.53362055 131.193896,6.21172081 C131.597237,5.88982108 132.165993,5.72887121 132.900164,5.72887121 C134.418357,5.72887121 135.243166,6.43071817 135.374592,7.8344121 L135.374592,7.8344121 L136.659391,7.8344121 C136.618603,6.72623268 136.253784,5.8687129 135.564932,5.26185274 C134.876081,4.65499258 133.969697,4.3515625 132.845781,4.3515625 C131.776248,4.3515625 130.918582,4.65235406 130.272784,5.25393717 C129.626985,5.85552028 129.304086,6.62596883 129.304086,7.56528282 C129.304086,8.3990559 129.552209,9.06660208 130.048454,9.56792134 C130.544699,10.0692406 131.36271,10.4610612 132.502488,10.7433831 C133.642266,11.025705 134.445548,11.3119847 134.912336,11.6022221 C135.379124,11.8924596 135.612517,12.3568395 135.612517,12.995362 C135.612517,13.6022221 135.387054,14.0824332 134.936129,14.4359952 C134.485203,14.7895572 133.890388,14.9663382 133.151685,14.9663382 C132.372195,14.9663382 131.707136,14.7592142 131.156508,14.3449662 C130.60588,13.9307182 130.296576,13.2908765 130.228598,12.4254411 L130.228598,12.4254411 L128.957394,12.4254411 C128.99365,13.5758369 129.359602,14.5177894 130.055252,15.2512986 C130.750901,15.9848079 131.801174,16.3515625 133.206068,16.3515625 Z M148.305826,16.1536733 C149.515849,16.1536733 150.438094,15.8634359 151.072563,15.2829609 C151.707032,14.702486 152.024266,13.8687129 152.024266,12.7816417 C152.024266,12.1325651 151.864516,11.5534095 151.545015,11.0441746 C151.225515,10.5349398 150.743999,10.1853356 150.100466,9.99536197 C151.056701,9.4571034 151.534819,8.62860735 151.534819,7.50987385 C151.534819,6.59166804 151.23118,5.8687129 150.623903,5.34100841 C150.016626,4.81330392 149.182753,4.54945168 148.122284,4.54945168 L148.122284,4.54945168 L144.573791,4.54945168 L144.573791,16.1536733 L148.305826,16.1536733 Z M148.108688,9.40960999 L145.892579,9.40960999 L145.892579,5.92676039 L147.986326,5.92676039 C148.815667,5.92676039 149.398019,6.07055986 149.733381,6.35815881 C150.068743,6.64575775 150.236424,7.07451765 150.236424,7.64443849 C150.236424,8.27768387 150.064211,8.73019047 149.719785,9.00195828 C149.375359,9.27372609 148.838327,9.40960999 148.108688,9.40960999 L148.108688,9.40960999 Z M148.292231,14.7763646 L145.892579,14.7763646 L145.892579,10.7869187 L148.122284,10.7869187 C149.08305,10.7869187 149.745844,10.9465493 150.110663,11.2658105 C150.475483,11.5850717 150.657892,12.0903488 150.657892,12.7816417 C150.657892,14.111457 149.869338,14.7763646 148.292231,14.7763646 L148.292231,14.7763646 Z M159.118687,16.1536733 L159.118687,11.238106 L163.034265,4.54945168 L161.429966,4.54945168 L158.466091,9.8924596 L155.48862,4.54945168 L153.884321,4.54945168 L157.799898,11.238106 L157.799898,16.1536733 L159.118687,16.1536733 Z" id="DEPLOYSBY" fill="#BCBCBC"></path>
        </g>
    </g>
</svg>