<?xml version="1.0" standalone="no"?>
<!DOCTYPE svg PUBLIC "-//W3C//DTD SVG 1.1//EN" "http://www.w3.org/Graphics/SVG/1.1/DTD/svg11.dtd" >
<svg>
<metadata>
Created by FontForge 20110222 at Fri Apr  8 09:37:07 2011
 By www-data
(c) 1999-2011 Typodermic Fonts. See attached license agreement for more information. If license is missing, visit typodermicfonts.com
</metadata>
<defs>
<font id="KenyanCoffeeRg-Regular" horiz-adv-x="401" >
  <font-face 
    font-family="Kenyan Coffee Rg"
    font-weight="400"
    font-stretch="normal"
    units-per-em="1000"
    panose-1="2 0 6 8 2 2 0 1 1 4"
    ascent="847"
    descent="-153"
    x-height="599"
    cap-height="790"
    bbox="-48 -203 977 996"
    underline-thickness="20"
    underline-position="-123"
    stemh="91"
    stemv="115"
    unicode-range="U+0020-2122"
  />
    <missing-glyph />
    <glyph glyph-name="copyright" unicode="&#x28;C&#x29;" horiz-adv-x="597" 
d="M297 800c214 0 264 -23 264 -192v-426c0 -169 -48 -192 -264 -192c-215 0 -261 23 -261 192v426c0 169 49 192 261 192zM297 730c-156 0 -178 -23 -178 -122v-425c0 -100 19 -122 178 -122s180 21 180 122v425c0 97 -20 122 -180 122zM389 452h-59v60c0 21 -7 27 -29 27
c-23 0 -30 -6 -30 -27v-222c0 -22 5 -28 30 -28c24 0 29 6 29 28v95h59v-102c0 -77 -20 -84 -88 -84c-77 0 -93 11 -93 84v237c0 73 17 82 93 82c73 0 88 -12 88 -82v-68z" />
    <glyph glyph-name="registered" unicode="&#x28;R&#x29;" horiz-adv-x="597" 
d="M297 800c214 0 264 -23 264 -192v-426c0 -169 -48 -192 -264 -192c-215 0 -261 23 -261 192v426c0 169 49 192 261 192zM297 730c-156 0 -178 -23 -178 -122v-425c0 -100 19 -122 178 -122s180 21 180 122v425c0 97 -20 122 -180 122zM401 191h-70v148c0 35 -4 39 -21 39
h-42v-187h-69v431h100c85 0 102 -13 102 -99v-56c0 -44 -24 -54 -40 -58v-4c25 -5 40 -22 40 -72v-142zM268 559v-125h42c18 0 21 8 21 27v62c0 31 -4 36 -29 36h-34z" />
    <glyph glyph-name="space" unicode=" " horiz-adv-x="172" 
 />
    <glyph glyph-name="exclam" unicode="!" horiz-adv-x="181" 
d="M31 790h118l-19 -601h-79zM143 132v-132h-105v132h105z" />
    <glyph glyph-name="quotedbl" unicode="&#x22;" horiz-adv-x="321" 
d="M31 790h89l-15 -284h-59zM191 790h89l-15 -284h-59z" />
    <glyph glyph-name="numbersign" unicode="#" horiz-adv-x="436" 
d="M35 324h59l15 140h-69l12 98h69l27 228h70l-27 -228h91l26 228h71l-27 -228h60l-13 -98h-58l-16 -140h68l-11 -99h-69l-26 -225h-71l26 225h-90l-26 -225h-70l26 225h-60zM180 464l-16 -140h90l16 140h-90z" />
    <glyph glyph-name="dollar" unicode="$" 
d="M156 862h89v-64c95 -6 116 -36 116 -166v-98h-112v98c0 57 -8 65 -49 65c-42 0 -49 -11 -49 -65v-73c0 -46 8 -56 64 -81c139 -63 150 -83 150 -199v-122c0 -131 -21 -159 -120 -165v-64h-89v64c-93 6 -116 35 -116 165v157h112v-157c0 -55 7 -65 48 -65
c43 0 49 10 49 65v108c0 62 -2 77 -55 101c-145 65 -158 85 -158 194v72c0 130 22 160 120 166v64z" />
    <glyph glyph-name="percent" unicode="%" horiz-adv-x="718" 
d="M259 702v-259c0 -84 -19 -95 -110 -95s-109 11 -109 95v259c0 83 18 94 109 94s110 -11 110 -94zM179 443v259c0 26 -4 30 -30 30s-30 -5 -30 -30v-259c0 -27 4 -31 30 -31c27 0 30 5 30 31zM485 790h78l-330 -790h-78zM676 348v-259c0 -84 -19 -95 -110 -95
s-109 11 -109 95v259c0 83 18 94 109 94s110 -11 110 -94zM596 89v259c0 26 -4 30 -30 30s-30 -5 -30 -30v-259c0 -27 4 -31 30 -31c27 0 30 5 30 31z" />
    <glyph glyph-name="ampersand" unicode="&#x26;" horiz-adv-x="397" 
d="M386 413h-37v-413h-149c-136 0 -164 21 -164 162v174c0 91 31 107 71 123v4c-32 6 -71 24 -71 107v59c0 141 28 161 164 161h17v-100h-17c-42 0 -49 -10 -49 -61v-69c0 -41 7 -56 47 -56h44v112h107v-112h37v-91zM242 99v314h-44c-40 0 -47 -14 -47 -57v-194
c0 -55 7 -63 49 -63h42z" />
    <glyph glyph-name="quotesingle" unicode="'" horiz-adv-x="152" 
d="M31 790h89l-15 -284h-59z" />
    <glyph glyph-name="parenleft" unicode="(" horiz-adv-x="257" 
d="M232 919v-74h-18c-57 0 -68 -18 -68 -106v-744c0 -91 12 -106 68 -106h18v-74h-18c-123 0 -150 50 -150 180v744c0 130 34 180 150 180h18z" />
    <glyph glyph-name="parenright" unicode=")" horiz-adv-x="257" 
d="M25 845v74h18c116 0 150 -50 150 -180v-744c0 -130 -27 -180 -150 -180h-18v74h18c56 0 68 15 68 106v744c0 88 -11 106 -68 106h-18z" />
    <glyph glyph-name="asterisk" unicode="*" horiz-adv-x="438" 
d="M44 695l46 13l107 -78l-12 134l34 36l33 -36l-11 -134l107 78l46 -13l-13 -48l-118 -57l118 -56l13 -48l-46 -13l-107 78l11 -134l-33 -36l-34 36l12 134l-107 -78l-46 13l14 48l117 56l-117 57z" />
    <glyph glyph-name="plus" unicode="+" horiz-adv-x="496" 
d="M202 196v158h-158v91h158v157h90v-157h159v-91h-159v-158h-90z" />
    <glyph glyph-name="comma" unicode="," horiz-adv-x="193" 
d="M149 132v-151c0 -55 -25 -87 -94 -87h-11v47h13c21 0 32 9 32 37v22h-45v132h105z" />
    <glyph glyph-name="hyphen" unicode="-" horiz-adv-x="206" 
d="M184 378v-90h-163v90h163z" />
    <glyph glyph-name="period" unicode="." horiz-adv-x="193" 
d="M149 132v-132h-105v132h105z" />
    <glyph glyph-name="slash" unicode="/" horiz-adv-x="274" 
d="M184 864h85l-181 -936h-84z" />
    <glyph glyph-name="zero" unicode="0" 
d="M365 634v-477c0 -147 -29 -167 -165 -167s-164 20 -164 167v477c0 146 28 166 164 166s165 -20 165 -166zM249 157v477c0 54 -7 63 -49 63s-49 -12 -49 -63v-477c0 -55 7 -65 49 -65c43 0 49 12 49 65z" />
    <glyph glyph-name="one" unicode="1" horiz-adv-x="247" 
d="M18 691v99h185v-790h-116v691h-69z" />
    <glyph glyph-name="two" unicode="2" horiz-adv-x="415" 
d="M372 0h-330v238c0 133 13 154 83 197l89 54c34 21 42 33 42 70v78c0 50 -7 60 -48 60c-42 0 -50 -13 -50 -63v-98h-112v98c0 146 28 166 163 166c137 0 163 -20 163 -163v-83c0 -83 -14 -109 -79 -147l-96 -57c-33 -20 -39 -33 -39 -76v-172h97v191h117v-293z" />
    <glyph glyph-name="three" unicode="3" horiz-adv-x="393" 
d="M33 308h110v-153c0 -51 10 -62 49 -62c40 0 48 16 48 62v135c0 67 -2 86 -47 86h-66v104h66c42 0 47 13 47 52v103c0 53 -9 62 -49 62c-47 0 -48 -16 -48 -62v-93h-110v93c0 145 29 165 158 165c136 0 165 -21 165 -163v-99c0 -83 -40 -100 -71 -108v-4
c42 -9 71 -32 71 -135v-138c0 -142 -29 -163 -165 -163c-129 0 -158 20 -158 165v153z" />
    <glyph glyph-name="four" unicode="4" horiz-adv-x="420" 
d="M350 324h47v-98h-47v-226h-117v226h-194l3 569h106l-3 -471h88v346h117v-346z" />
    <glyph glyph-name="five" unicode="5" horiz-adv-x="405" 
d="M365 537h-116v167h-96l-1 -229h88c93 0 125 -39 125 -158v-160c0 -147 -30 -167 -165 -167c-129 0 -158 20 -158 166v142h110v-142c0 -55 4 -64 48 -64c43 0 49 9 49 64v143c0 68 -4 92 -58 92h-149l3 399h320v-253z" />
    <glyph glyph-name="six" unicode="6" 
d="M365 301v-144c0 -147 -29 -167 -165 -167s-164 20 -164 167v477c0 146 28 166 164 166c129 0 159 -20 159 -166v-79h-111v79c0 53 -7 63 -48 63s-49 -13 -49 -63v-210c15 30 47 44 100 44c97 0 114 -42 114 -167zM249 157v142c0 70 -10 79 -44 79c-35 0 -48 -14 -54 -46
v-166c0 -65 9 -74 49 -74s49 9 49 65z" />
    <glyph glyph-name="seven" unicode="7" horiz-adv-x="330" 
d="M301 790v-88l-148 -702h-119l153 694h-161v96h275z" />
    <glyph glyph-name="eight" unicode="8" horiz-adv-x="403" 
d="M201 800c136 0 165 -21 165 -161v-101c0 -83 -39 -100 -74 -108v-4c46 -9 74 -32 74 -135v-139c0 -141 -29 -162 -165 -162s-165 21 -165 162v139c0 103 29 126 74 135v4c-35 8 -74 25 -74 108v101c0 140 29 161 165 161zM250 313c0 58 -8 69 -49 69
c-42 0 -49 -8 -49 -84v-145c0 -51 8 -61 49 -61c42 0 49 10 49 61v160zM201 697c-44 0 -49 -12 -49 -70v-98c0 -41 7 -55 49 -55c44 0 49 13 49 55v98c0 59 -5 70 -49 70z" />
    <glyph glyph-name="nine" unicode="9" 
d="M36 466v167c0 147 28 167 164 167s165 -20 165 -167v-477c0 -146 -29 -166 -165 -166c-129 0 -158 20 -158 166v61h110v-61c0 -54 9 -64 48 -64c43 0 49 13 49 64v186c-15 -29 -47 -43 -99 -43c-96 0 -114 42 -114 167zM151 633v-144c0 -82 0 -101 45 -101
c34 0 48 12 53 46v199c0 56 -6 64 -49 64s-49 -8 -49 -64z" />
    <glyph glyph-name="colon" unicode=":" horiz-adv-x="193" 
d="M149 132v-132h-105v132h105zM149 529v-132h-105v132h105z" />
    <glyph glyph-name="semicolon" unicode=";" horiz-adv-x="193" 
d="M149 132v-151c0 -55 -25 -87 -94 -87h-11v47h13c21 0 32 9 32 37v22h-45v132h105zM149 529v-132h-105v132h105z" />
    <glyph glyph-name="less" unicode="&#x3c;" horiz-adv-x="496" 
d="M44 448l407 165v-91l-308 -122l308 -123v-91l-407 165v97z" />
    <glyph glyph-name="equal" unicode="=" horiz-adv-x="496" 
d="M452 247h-408v90h408v-90zM452 465h-408v90h408v-90z" />
    <glyph glyph-name="greater" unicode="&#x3e;" horiz-adv-x="496" 
d="M45 613l407 -165v-97l-407 -165v91l308 123l-308 122v91z" />
    <glyph glyph-name="question" unicode="?" horiz-adv-x="387" 
d="M236 131v-131h-105v131h105zM133 189v64c0 63 6 88 32 131l55 87c16 25 19 42 19 83v80c0 53 -7 63 -49 63c-44 0 -49 -11 -49 -63v-100h-112v100c0 146 30 166 161 166c135 0 165 -20 165 -166v-71c0 -69 -6 -90 -37 -139l-69 -110c-15 -24 -18 -33 -18 -66v-59h-98z
" />
    <glyph glyph-name="at" unicode="@" horiz-adv-x="423" 
d="M253 453c31 0 52 -7 63 -24v100c0 72 -9 89 -103 89s-105 -13 -105 -89v-495c0 -69 11 -82 105 -82c93 0 103 13 103 82v28h71v-21c0 -142 -31 -162 -176 -162s-175 20 -175 162v482c0 146 30 166 175 166s176 -20 176 -166v-390h-66v24c-12 -18 -32 -28 -68 -28
c-60 0 -73 20 -73 87v146c0 71 13 91 73 91zM246 353v-130c0 -29 6 -38 33 -38c19 0 31 12 37 27v156c-6 15 -18 23 -37 23c-25 0 -33 -11 -33 -38z" />
    <glyph glyph-name="A" unicode="A" 
d="M362 0h-115v176h-97v-176h-112v634c0 146 30 166 161 166s163 -24 163 -166v-634zM198 697c-41 0 -48 -9 -48 -63v-364h97v364c0 54 -8 63 -49 63z" />
    <glyph glyph-name="B" unicode="B" horiz-adv-x="407" 
d="M302 458c42 -10 71 -33 71 -129v-167c0 -141 -29 -162 -165 -162h-164v790h164c136 0 165 -20 165 -161v-59c0 -82 -44 -104 -71 -108v-4zM159 413v-314h49c42 0 49 10 49 63v193c0 44 -6 58 -46 58h-52zM159 690v-186h52c37 0 46 13 46 51v74c0 49 -5 61 -49 61h-49z
" />
    <glyph glyph-name="C" unicode="C" horiz-adv-x="395" 
d="M359 455h-111v179c0 54 -7 63 -48 63c-42 0 -49 -12 -49 -63v-477c0 -55 7 -65 49 -65c41 0 48 10 48 65v183h111v-183c0 -147 -30 -167 -159 -167c-136 0 -164 20 -164 167v477c0 145 33 166 164 166c129 0 159 -20 159 -166v-179z" />
    <glyph glyph-name="D" unicode="D" horiz-adv-x="409" 
d="M373 629v-467c0 -141 -29 -162 -165 -162h-164v790h164c136 0 165 -20 165 -161zM257 162v467c0 52 -7 61 -49 61h-49v-591h49c42 0 49 10 49 63z" />
    <glyph glyph-name="E" unicode="E" horiz-adv-x="294" 
d="M270 99v-99h-226v790h225v-95h-110v-115h107v-91h-107v-390h111z" />
    <glyph glyph-name="F" unicode="F" horiz-adv-x="288" 
d="M159 0h-115v790h230v-95h-115v-117h111v-95h-111v-483z" />
    <glyph glyph-name="G" unicode="G" horiz-adv-x="399" 
d="M359 562h-111v72c0 54 -7 63 -48 63c-42 0 -49 -12 -49 -63v-477c0 -52 7 -65 49 -65c27 0 43 2 51 4v363h108v-459c-19 -4 -71 -10 -159 -10c-136 0 -164 29 -164 167v477c0 145 33 166 164 166c129 0 159 -20 159 -166v-72z" />
    <glyph glyph-name="H" unicode="H" horiz-adv-x="419" 
d="M375 790v-790h-116v432h-100v-432h-115v790h115v-261h100v261h116z" />
    <glyph glyph-name="I" unicode="I" horiz-adv-x="208" 
d="M161 790v-790h-115v790h115z" />
    <glyph glyph-name="J" unicode="J" horiz-adv-x="374" 
d="M14 157v183h105v-183c0 -55 8 -65 47 -65c40 0 47 12 47 65v633h116v-633c0 -147 -28 -167 -161 -167c-125 0 -154 20 -154 167z" />
    <glyph glyph-name="K" unicode="K" horiz-adv-x="406" 
d="M262 790h121l-118 -328l134 -462h-125l-109 415h-5v-415h-116v789h116v-298h5z" />
    <glyph glyph-name="L" unicode="L" horiz-adv-x="290" 
d="M277 100v-100h-233v790h115v-690h118z" />
    <glyph glyph-name="M" unicode="M" horiz-adv-x="535" 
d="M330 790h160v-790h-94v558h-4l-73 -558h-103l-73 562h-4v-562h-95v790h161l60 -531h4z" />
    <glyph glyph-name="N" unicode="N" horiz-adv-x="434" 
d="M389 0h-123l-119 493h-4v-493h-99v790h127l114 -507h4v507h100v-790z" />
    <glyph glyph-name="O" unicode="O" 
d="M365 634v-477c0 -147 -29 -167 -165 -167s-164 20 -164 167v477c0 146 28 166 164 166s165 -20 165 -166zM249 157v477c0 54 -7 63 -49 63s-49 -12 -49 -63v-477c0 -55 7 -65 49 -65c43 0 49 12 49 65z" />
    <glyph glyph-name="P" unicode="P" horiz-adv-x="397" 
d="M208 299h-49v-299h-115v790h164c136 0 165 -20 165 -161v-169c0 -142 -31 -161 -165 -161zM208 690h-49v-298h49c41 0 49 10 49 64v173c0 51 -4 61 -49 61z" />
    <glyph glyph-name="Q" unicode="Q" 
d="M365 -76h-100l-53 85c-153 0 -176 18 -176 154v471c0 146 28 166 164 166s165 -20 165 -166v-471c0 -91 -12 -130 -59 -145zM249 163v471c0 54 -7 63 -49 63s-49 -12 -49 -63v-471c0 -55 7 -63 49 -63c43 0 49 10 49 63z" />
    <glyph glyph-name="R" unicode="R" horiz-adv-x="411" 
d="M159 390v-390h-115v790h164c136 0 165 -22 165 -161v-83c0 -83 -40 -100 -71 -108v-4c42 -10 71 -32 71 -119v-315h-116v333c0 43 -6 57 -46 57h-52zM159 690v-209h52c37 0 46 13 46 51v97c0 50 -5 61 -49 61h-49z" />
    <glyph glyph-name="S" unicode="S" horiz-adv-x="397" 
d="M359 534h-112v98c0 56 -5 65 -49 65s-49 -9 -49 -65v-78c0 -41 6 -48 64 -78c139 -72 150 -89 150 -192v-127c0 -147 -28 -167 -165 -167c-129 0 -160 20 -160 167v157h112v-157c0 -55 6 -65 48 -65c43 0 49 10 49 65v119c0 53 -4 64 -64 95c-138 71 -149 94 -149 185v76
c0 147 27 168 164 168c133 0 161 -21 161 -168v-98z" />
    <glyph glyph-name="T" unicode="T" horiz-adv-x="313" 
d="M300 790v-96h-86v-694h-115v694h-87v96h288z" />
    <glyph glyph-name="U" unicode="U" horiz-adv-x="405" 
d="M203 -10c-132 0 -163 20 -163 167v633h115v-633c0 -55 8 -64 50 -64c40 0 48 9 48 64v633h112v-633c0 -147 -30 -167 -162 -167z" />
    <glyph glyph-name="V" unicode="V" horiz-adv-x="374" 
d="M265 0h-168l-89 790h118l55 -647h4l61 647h119z" />
    <glyph glyph-name="W" unicode="W" horiz-adv-x="579" 
d="M9 790h115l33 -621h4l53 621h147l45 -621h4l43 621h116l-92 -790h-146l-42 627h-4l-55 -627h-148z" />
    <glyph glyph-name="X" unicode="X" horiz-adv-x="378" 
d="M249 790h107l-80 -376l94 -414h-119l-66 353l-64 -353h-115l90 414l-84 376h118l63 -303z" />
    <glyph glyph-name="Y" unicode="Y" horiz-adv-x="354" 
d="M238 790h112l-118 -511v-279h-115v279l-114 511h114l57 -357h4z" />
    <glyph glyph-name="Z" unicode="Z" horiz-adv-x="314" 
d="M295 99v-99h-277v100l159 594h-143v96h259v-78l-155 -613h157z" />
    <glyph glyph-name="bracketleft" unicode="[" horiz-adv-x="257" 
d="M242 919v-74h-87v-956h87v-74h-169v1104h169z" />
    <glyph glyph-name="backslash" unicode="\" horiz-adv-x="274" 
d="M4 864h84l181 -936h-85z" />
    <glyph glyph-name="bracketright" unicode="]" horiz-adv-x="257" 
d="M15 845v74h169v-1104h-169v74h87v956h-87z" />
    <glyph glyph-name="asciicircum" unicode="^" horiz-adv-x="455" 
d="M275 790l153 -449h-90l-112 342l-110 -342h-90l153 449h96z" />
    <glyph glyph-name="underscore" unicode="_" horiz-adv-x="396" 
d="M398 -46v-90h-399v90h399z" />
    <glyph glyph-name="grave" unicode="`" horiz-adv-x="202" 
d="M124 805l63 -166h-77l-96 166h110z" />
    <glyph glyph-name="a" unicode="a" horiz-adv-x="355" 
d="M162 -10c-102 0 -126 15 -126 116v145c0 72 25 104 91 104h19c45 0 60 -4 69 -9v124c0 44 -7 52 -45 52c-36 0 -41 -12 -41 -52v-59h-93v71c0 112 24 127 134 127c119 0 144 -15 144 -127v-482c-24 -6 -73 -10 -152 -10zM170 74c29 0 41 1 45 2v196c-9 5 -21 6 -44 6
c-39 0 -42 -12 -42 -53v-94c0 -46 3 -57 41 -57z" />
    <glyph glyph-name="b" unicode="b" horiz-adv-x="367" 
d="M330 482v-365c0 -95 -18 -122 -98 -122c-48 0 -76 13 -93 48v-43h-95v790h102v-228c15 26 41 42 87 42c78 0 97 -32 97 -122zM143 481v-364c8 -19 23 -31 45 -31c34 0 43 10 43 50v326c0 40 -9 50 -43 50c-22 0 -37 -12 -45 -31z" />
    <glyph glyph-name="c" unicode="c" horiz-adv-x="349" 
d="M314 377h-93v94c0 35 -7 42 -42 42c-39 0 -44 -8 -44 -42v-344c0 -35 7 -43 44 -43c35 0 42 11 42 43v155h93v-165c0 -113 -28 -127 -135 -127c-119 0 -143 17 -143 127v365c0 111 26 127 143 127c113 0 135 -20 135 -127v-105z" />
    <glyph glyph-name="d" unicode="d" horiz-adv-x="367" 
d="M36 117v365c0 94 18 122 97 122c45 0 71 -16 86 -42v228h103v-790h-95v43c-18 -35 -45 -48 -93 -48c-80 0 -98 27 -98 122zM222 117v364c-8 19 -23 31 -45 31c-34 0 -42 -10 -42 -50v-326c0 -40 8 -50 42 -50c22 0 37 12 45 31z" />
    <glyph glyph-name="e" unicode="e" horiz-adv-x="351" 
d="M314 264h-178v-141c0 -38 6 -46 43 -46c36 0 43 8 43 46v81h92v-87c0 -112 -24 -127 -135 -127c-118 0 -143 15 -143 127v365c0 112 25 127 143 127c111 0 135 -15 135 -127v-218zM136 474v-128h86v128c0 38 -7 45 -43 45c-37 0 -43 -7 -43 -45z" />
    <glyph glyph-name="f" unicode="f" horiz-adv-x="242" 
d="M228 599v-83h-76v-516h-102v516h-37v83h37v64c0 88 40 127 145 127h32v-76h-25c-35 0 -50 -18 -50 -56v-59h76z" />
    <glyph glyph-name="g" unicode="g" horiz-adv-x="367" 
d="M159 -67c45 0 60 12 60 57v77c-15 -26 -41 -41 -86 -41c-81 0 -97 31 -97 122v334c0 94 18 122 98 122c48 0 75 -14 93 -49v44h95v-609c0 -97 -38 -143 -139 -143h-131v86h107zM222 148v333c-8 19 -23 31 -45 31c-34 0 -42 -10 -42 -50v-295c0 -40 8 -50 42 -50
c22 0 37 12 45 31z" />
    <glyph glyph-name="h" unicode="h" horiz-adv-x="380" 
d="M146 481v-481h-102v790h102v-229c15 29 43 43 88 43c80 0 105 -28 105 -122v-482h-102v471c0 31 -10 41 -44 41c-26 0 -39 -12 -47 -31z" />
    <glyph glyph-name="i" unicode="i" horiz-adv-x="194" 
d="M147 790v-104h-101v104h101zM147 599v-599h-101v599h101z" />
    <glyph glyph-name="j" unicode="j" horiz-adv-x="194" 
d="M48 -10v609h102v-609c0 -96 -40 -143 -142 -143h-56v86h48c34 0 48 15 48 57zM150 790v-104h-102v104h102z" />
    <glyph glyph-name="k" unicode="k" horiz-adv-x="365" 
d="M357 0h-114l-94 308h-4v-308h-101v790h101v-412h4l84 221h111l-109 -250z" />
    <glyph glyph-name="l" unicode="l" horiz-adv-x="191" 
d="M146 790v-790h-102v790h102z" />
    <glyph glyph-name="m" unicode="m" horiz-adv-x="573" 
d="M146 481v-481h-102v599h95v-40c15 29 44 45 94 45c53 0 82 -13 96 -49c17 32 46 49 96 49c81 0 106 -28 106 -122v-482h-102v471c0 31 -9 41 -44 41c-25 0 -38 -11 -46 -30v-482h-102v471c0 31 -10 41 -44 41c-26 0 -39 -12 -47 -31z" />
    <glyph glyph-name="n" unicode="n" horiz-adv-x="380" 
d="M146 481v-481h-102v599h95v-40c15 29 44 45 94 45c81 0 106 -28 106 -122v-482h-102v471c0 31 -10 41 -44 41c-26 0 -39 -12 -47 -31z" />
    <glyph glyph-name="o" unicode="o" horiz-adv-x="359" 
d="M322 482v-365c0 -112 -26 -127 -143 -127c-118 0 -143 15 -143 127v365c0 112 25 127 143 127c117 0 143 -15 143 -127zM223 127v344c0 35 -7 42 -44 42s-44 -9 -44 -42v-344c0 -35 7 -43 44 -43c38 0 44 11 44 43z" />
    <glyph glyph-name="p" unicode="p" horiz-adv-x="367" 
d="M330 482v-365c0 -95 -18 -122 -97 -122c-46 0 -72 15 -87 41v-189h-102v752h95v-44c17 35 45 49 93 49c80 0 98 -28 98 -122zM143 481v-364c8 -19 23 -31 45 -31c34 0 43 10 43 50v326c0 40 -9 50 -43 50c-22 0 -37 -12 -45 -31z" />
    <glyph glyph-name="q" unicode="q" horiz-adv-x="367" 
d="M36 117v365c0 94 18 122 98 122c48 0 75 -14 93 -49v44h95v-752h-103v189c-15 -26 -41 -41 -86 -41c-79 0 -97 30 -97 122zM222 117v364c-8 19 -23 31 -45 31c-34 0 -42 -10 -42 -50v-326c0 -40 8 -50 42 -50c22 0 37 12 45 31z" />
    <glyph glyph-name="r" unicode="r" horiz-adv-x="338" 
d="M146 479v-479h-102v599h95v-40c14 27 44 45 93 45c70 0 93 -28 93 -122v-149h-92v137c0 32 -8 42 -42 42c-21 0 -38 -12 -45 -33z" />
    <glyph glyph-name="s" unicode="s" horiz-adv-x="355" 
d="M320 426h-99v45c0 35 -6 43 -43 43c-39 0 -44 -8 -44 -43v-48c0 -31 5 -42 51 -61c29 -12 51 -23 69 -32c59 -30 66 -54 66 -101v-111c0 -113 -23 -128 -142 -128c-118 0 -144 15 -144 128v92h100v-81c0 -36 7 -44 44 -44c39 0 43 9 43 44v73c0 35 -7 44 -62 66
c-26 10 -47 20 -63 28c-51 26 -62 52 -62 112v73c0 113 25 128 144 128c118 0 142 -15 142 -128v-55z" />
    <glyph glyph-name="t" unicode="t" horiz-adv-x="241" 
d="M218 599v-83h-70v-376c0 -41 10 -53 50 -53h19v-87h-26c-110 0 -145 39 -145 127v389h-37v83h37v182h102v-182h70z" />
    <glyph glyph-name="u" unicode="u" horiz-adv-x="377" 
d="M230 117v482h103v-599h-96v39c-15 -29 -43 -44 -92 -44c-81 0 -105 27 -105 122v482h102v-472c0 -29 8 -41 42 -41c26 0 38 12 46 31z" />
    <glyph glyph-name="v" unicode="v" horiz-adv-x="326" 
d="M238 0h-160l-72 599h107l46 -455h4l50 455h106z" />
    <glyph glyph-name="w" unicode="w" horiz-adv-x="536" 
d="M5 599h109l31 -448h4l51 448h133l46 -448h4l37 448h109l-83 -599h-138l-40 455h-4l-51 -455h-139z" />
    <glyph glyph-name="x" unicode="x" horiz-adv-x="339" 
d="M223 599h96l-71 -285l83 -314h-107l-58 266l-57 -266h-103l83 316l-78 283h106l55 -229z" />
    <glyph glyph-name="y" unicode="y" horiz-adv-x="380" 
d="M233 148v451h102v-609c0 -97 -39 -143 -140 -143h-134v86h109c45 0 61 12 61 57v77c-15 -26 -43 -41 -88 -41c-79 0 -103 27 -103 122v451h102v-432c0 -40 12 -50 46 -50c23 0 36 12 45 31z" />
    <glyph glyph-name="z" unicode="z" horiz-adv-x="301" 
d="M284 86v-86h-269v87l165 429h-147v83h248v-77l-160 -436h163z" />
    <glyph glyph-name="braceleft" unicode="{" horiz-adv-x="267" 
d="M174 452c0 -49 -16 -80 -39 -94c23 -15 39 -46 39 -94v-303c0 -71 13 -92 67 -92h11v-72h-11c-119 0 -148 42 -148 164v308c0 36 -16 55 -51 55h-15v68h15c35 0 51 19 51 55v307c0 122 29 165 148 165h11v-73h-11c-54 0 -67 -21 -67 -92v-302z" />
    <glyph glyph-name="bar" unicode="|" horiz-adv-x="228" 
d="M154 919v-1104h-82v1104h82z" />
    <glyph glyph-name="braceright" unicode="}" horiz-adv-x="267" 
d="M93 452v302c0 71 -13 92 -67 92h-11v73h11c119 0 148 -43 148 -165v-307c0 -36 16 -55 51 -55h15v-68h-15c-35 0 -51 -19 -51 -55v-308c0 -122 -29 -164 -148 -164h-11v72h11c54 0 67 21 67 92v303c0 48 16 79 39 94c-23 14 -39 45 -39 94z" />
    <glyph glyph-name="asciitilde" unicode="~" horiz-adv-x="512" 
d="M44 318v85c10 36 52 62 105 62c68 0 136 -59 199 -59c57 0 85 27 103 70v-86c-9 -35 -53 -61 -105 -61c-73 0 -140 58 -199 58c-58 0 -83 -29 -103 -69z" />
    <glyph glyph-name="nbspace" unicode="&#xa0;" horiz-adv-x="172" 
 />
    <glyph glyph-name="exclamdown" unicode="&#xa1;" horiz-adv-x="181" 
d="M149 0h-118l19 601h79zM37 658v132h105v-132h-105z" />
    <glyph glyph-name="cent" unicode="&#xa2;" horiz-adv-x="356" 
d="M132 810h89v-97c76 -5 95 -28 95 -125v-121h-93v110c0 36 -6 43 -42 43c-39 0 -44 -7 -44 -43v-365c0 -34 7 -42 44 -42c36 0 42 8 42 42v160h93v-170c0 -98 -19 -122 -95 -126v-96h-89v96c-77 6 -94 31 -94 126v386c0 94 17 120 94 125v97z" />
    <glyph glyph-name="sterling" unicode="&#xa3;" horiz-adv-x="400" 
d="M372 0h-351v96h34v190h-34v83h34v265c0 146 27 166 160 166c126 0 155 -20 155 -166v-196h-105v196c0 54 -7 64 -47 64c-41 0 -48 -10 -48 -64v-265h178v-83h-178v-190h202v-96z" />
    <glyph glyph-name="currency" unicode="&#xa4;" horiz-adv-x="518" 
d="M347 255c-19 -9 -46 -11 -87 -11c-43 0 -70 2 -89 12l-95 -95l-51 51l85 85c-5 15 -6 36 -6 63v69c0 25 1 48 6 64l-84 84l51 51l94 -95c20 9 47 12 89 12c41 0 68 -3 86 -12l95 95l51 -51l-83 -82c5 -16 7 -40 7 -66v-69c0 -28 -2 -49 -7 -65l83 -83l-51 -51zM172 430
v-70c0 -44 8 -55 88 -55s88 11 88 55v70c0 42 -8 55 -88 55s-88 -13 -88 -55z" />
    <glyph glyph-name="yen" unicode="&#xa5;" horiz-adv-x="396" 
d="M33 282v70h99l-108 438h112l59 -327h4l59 327h113l-106 -438h88v-70h-94v-83h94v-71h-94v-128h-121v128h-105v71h105v83h-105z" />
    <glyph glyph-name="brokenbar" unicode="&#xa6;" horiz-adv-x="228" 
d="M154 -185h-82v444h82v-444zM154 919v-418h-82v418h82z" />
    <glyph glyph-name="section" unicode="&#xa7;" horiz-adv-x="355" 
d="M320 624h-99v40c0 35 -6 43 -44 43s-44 -10 -44 -43v-38c0 -31 4 -45 54 -67c118 -51 133 -78 133 -154v-75c0 -54 -10 -79 -33 -95c29 -21 33 -56 33 -110v-62c0 -114 -23 -129 -143 -129c-117 0 -143 15 -143 129v75h99v-64c0 -39 8 -46 44 -46c38 0 44 10 44 46v52
c0 41 -8 50 -65 73c-96 38 -122 56 -122 131v75c0 66 8 93 44 107c-36 20 -44 40 -44 96v66c0 113 25 128 143 128s143 -15 143 -128v-50zM221 392c0 39 -9 57 -44 63c-42 -5 -44 -19 -44 -80v-30c0 -36 8 -44 64 -58c22 4 24 27 24 61v44z" />
    <glyph glyph-name="dieresis" unicode="&#xa8;" horiz-adv-x="374" 
d="M328 790v-104h-102v104h102zM147 790v-104h-101v104h101z" />
    <glyph glyph-name="ordfeminine" unicode="&#xaa;" horiz-adv-x="270" 
d="M124 389c-68 0 -84 10 -84 67v79c0 42 18 60 62 60h11c28 0 38 -1 44 -4v62c0 22 -5 25 -27 25s-26 -6 -26 -25v-35h-64v42c0 65 16 73 90 73c79 0 96 -8 96 -73v-265c-17 -3 -47 -6 -102 -6zM130 443c15 0 23 0 27 1v99c-6 2 -14 3 -27 3c-23 0 -26 -6 -26 -25v-51
c0 -22 3 -27 26 -27z" />
    <glyph glyph-name="guillemotleft" unicode="&#xab;" horiz-adv-x="468" 
d="M38 409l156 105v-78l-98 -68l98 -69v-78l-156 105v83zM272 409l156 105v-78l-98 -68l98 -69v-78l-156 105v83z" />
    <glyph glyph-name="logicalnot" unicode="&#xac;" horiz-adv-x="496" 
d="M452 22h-90v339h-318v90h408v-429z" />
    <glyph glyph-name="macron" unicode="&#xaf;" horiz-adv-x="385" 
d="M338 769v-61h-292v61h292z" />
    <glyph glyph-name="degree" unicode="&#xb0;" horiz-adv-x="337" 
d="M315 644c0 -85 -65 -154 -146 -154c-83 0 -147 69 -147 154c0 86 64 156 147 156c81 0 146 -70 146 -156zM260 644c0 54 -41 98 -91 98c-52 0 -93 -44 -93 -98c0 -53 41 -97 93 -97c50 0 91 44 91 97z" />
    <glyph glyph-name="plusminus" unicode="&#xb1;" horiz-adv-x="496" 
d="M202 196v158h-158v91h158v157h90v-157h159v-91h-159v-158h-90zM451 0h-407v91h407v-91z" />
    <glyph glyph-name="twosuperior" unicode="&#xb2;" horiz-adv-x="310" 
d="M264 354h-220v152c0 55 8 68 56 92l58 29c20 10 26 18 26 34v42c0 25 -5 29 -30 29c-26 0 -31 -6 -31 -30v-57h-77v57c0 83 19 94 109 94c91 0 109 -11 109 -93v-44c0 -49 -11 -62 -54 -84l-62 -31c-20 -10 -25 -17 -25 -37v-90h60v104h81v-167z" />
    <glyph glyph-name="threesuperior" unicode="&#xb3;" horiz-adv-x="295" 
d="M38 529h76v-87c0 -25 6 -30 30 -30c25 0 29 8 29 30v73c0 33 -1 43 -29 43h-44v64h44c26 0 29 6 29 25v55c0 26 -6 30 -30 30c-29 0 -29 -7 -29 -30v-54h-76v54c0 83 19 94 105 94c91 0 110 -13 110 -93v-53c0 -40 -16 -54 -34 -61c22 -7 34 -24 34 -73v-75
c0 -80 -19 -93 -110 -93c-86 0 -105 11 -105 94v87z" />
    <glyph glyph-name="acute" unicode="&#xb4;" horiz-adv-x="202" 
d="M14 639l63 166h110l-95 -166h-78z" />
    <glyph glyph-name="paragraph" unicode="&#xb6;" horiz-adv-x="587" 
d="M347 -153h-115v473h-35c-136 0 -164 20 -164 161v148c0 141 28 161 164 161h344v-943h-115v847h-79v-847zM148 476c0 -53 7 -63 49 -63h35v277h-35c-42 0 -49 -11 -49 -62v-152z" />
    <glyph glyph-name="periodcentered" unicode="&#xb7;" horiz-adv-x="193" 
d="M149 462v-132h-105v132h105z" />
    <glyph glyph-name="cedilla" unicode="&#xb8;" horiz-adv-x="179" 
d="M12 -185l51 165h102l-82 -165h-71z" />
    <glyph glyph-name="onesuperior" unicode="&#xb9;" horiz-adv-x="199" 
d="M28 729v62h125v-437h-79v375h-46z" />
    <glyph glyph-name="ordmasculine" unicode="&#xba;" horiz-adv-x="272" 
d="M230 660v-198c0 -63 -16 -73 -95 -73c-78 0 -95 10 -95 73v198c0 65 17 73 95 73c79 0 95 -8 95 -73zM163 468v186c0 16 -5 19 -28 19c-22 0 -27 -4 -27 -19v-186c0 -16 5 -20 27 -20c23 0 28 5 28 20z" />
    <glyph glyph-name="guillemotright" unicode="&#xbb;" horiz-adv-x="468" 
d="M40 514l156 -105v-83l-156 -105v78l98 69l-98 68v78zM274 514l156 -105v-83l-156 -105v78l98 69l-98 68v78z" />
    <glyph glyph-name="onequarter" unicode="&#xbc;" horiz-adv-x="628" 
d="M28 729v62h125v-437h-79v375h-46zM383 790h78l-330 -790h-78zM565 184h29v-62h-29v-122h-81v122h-125v317h72v-255h53v188h81v-188z" />
    <glyph glyph-name="onehalf" unicode="&#xbd;" horiz-adv-x="625" 
d="M28 729v62h125v-437h-79v375h-46zM383 790h78l-330 -790h-78zM579 0h-220v152c0 55 8 68 56 92l58 29c20 10 26 18 26 34v42c0 25 -5 29 -30 29c-26 0 -31 -6 -31 -30v-57h-77v57c0 83 19 94 109 94c91 0 109 -11 109 -93v-44c0 -49 -11 -62 -54 -84l-62 -31
c-20 -10 -25 -17 -25 -37v-90h60v104h81v-167z" />
    <glyph glyph-name="threequarters" unicode="&#xbe;" horiz-adv-x="724" 
d="M38 529h76v-87c0 -25 6 -30 30 -30c25 0 29 8 29 30v73c0 33 -1 43 -29 43h-44v64h44c26 0 29 6 29 25v55c0 26 -6 30 -30 30c-29 0 -29 -7 -29 -30v-54h-76v54c0 83 19 94 105 94c91 0 110 -13 110 -93v-53c0 -40 -16 -54 -34 -61c22 -7 34 -24 34 -73v-75
c0 -80 -19 -93 -110 -93c-86 0 -105 11 -105 94v87zM479 790h78l-330 -790h-78zM661 184h29v-62h-29v-122h-81v122h-125v317h72v-255h53v188h81v-188z" />
    <glyph glyph-name="questiondown" unicode="&#xbf;" horiz-adv-x="387" 
d="M148 659v131h105v-131h-105zM251 601v-64c0 -63 -6 -88 -32 -131l-55 -87c-16 -25 -19 -42 -19 -83v-80c0 -53 7 -63 49 -63c44 0 49 11 49 63v100h112v-100c0 -146 -30 -166 -161 -166c-135 0 -165 20 -165 166v71c0 69 6 90 37 139l69 110c15 24 18 33 18 66v59h98z
" />
    <glyph glyph-name="Agrave" unicode="&#xc0;" 
d="M362 0h-115v176h-97v-176h-112v634c0 146 30 166 161 166s163 -24 163 -166v-634zM198 697c-41 0 -48 -9 -48 -63v-364h97v364c0 54 -8 63 -49 63zM194 996l63 -166h-77l-96 166h110z" />
    <glyph glyph-name="Aacute" unicode="&#xc1;" 
d="M362 0h-115v176h-97v-176h-112v634c0 146 30 166 161 166s163 -24 163 -166v-634zM198 697c-41 0 -48 -9 -48 -63v-364h97v364c0 54 -8 63 -49 63zM144 830l63 166h110l-95 -166h-78z" />
    <glyph glyph-name="Acircumflex" unicode="&#xc2;" 
d="M362 0h-115v176h-97v-176h-112v634c0 146 30 166 161 166s163 -24 163 -166v-634zM198 697c-41 0 -48 -9 -48 -63v-364h97v364c0 54 -8 63 -49 63zM244 996l101 -166h-72l-73 109l-73 -109h-72l102 166h87z" />
    <glyph glyph-name="Atilde" unicode="&#xc3;" 
d="M362 0h-115v176h-97v-176h-112v634c0 146 30 166 161 166s163 -24 163 -166v-634zM198 697c-41 0 -48 -9 -48 -63v-364h97v364c0 54 -8 63 -49 63zM121 914c-33 0 -53 -15 -67 -36v73c15 14 40 26 68 26c56 0 99 -31 155 -31c32 0 54 13 69 36v-72
c-15 -17 -40 -29 -70 -29c-57 0 -98 33 -155 33z" />
    <glyph glyph-name="Adieresis" unicode="&#xc4;" 
d="M362 0h-115v176h-97v-176h-112v634c0 146 30 166 161 166s163 -24 163 -166v-634zM198 697c-41 0 -48 -9 -48 -63v-364h97v364c0 54 -8 63 -49 63zM341 981v-104h-102v104h102zM160 981v-104h-101v104h101z" />
    <glyph glyph-name="Aring" unicode="&#xc5;" 
d="M362 0h-115v176h-97v-176h-112v634c0 146 30 166 161 166s163 -24 163 -166v-634zM198 697c-41 0 -48 -9 -48 -63v-364h97v364c0 54 -8 63 -49 63zM282 928v-40c0 -60 -15 -68 -82 -68c-66 0 -81 8 -81 68v40c0 60 15 68 81 68c67 0 82 -8 82 -68zM240 892v32
c0 26 -7 29 -40 29c-32 0 -39 -3 -39 -29v-32c0 -26 7 -29 39 -29c33 0 40 3 40 29z" />
    <glyph glyph-name="AE" unicode="&#xc6;" horiz-adv-x="488" 
d="M442 0h-220v176h-72v-176h-112v629c0 147 30 161 161 161h242v-96h-107v-114h104v-92h-104v-390h108v-98zM150 633v-363h72v424h-24c-41 0 -48 -7 -48 -61z" />
    <glyph glyph-name="Ccedilla" unicode="&#xc7;" horiz-adv-x="395" 
d="M359 455h-111v179c0 54 -7 63 -48 63c-42 0 -49 -12 -49 -63v-477c0 -55 7 -65 49 -65c41 0 48 10 48 65v183h111v-183c0 -147 -30 -167 -159 -167c-136 0 -164 20 -164 167v477c0 145 33 166 164 166c129 0 159 -20 159 -166v-179zM101 -185l51 165h102l-82 -165h-71z
" />
    <glyph glyph-name="Egrave" unicode="&#xc8;" horiz-adv-x="294" 
d="M270 99v-99h-226v790h225v-95h-110v-115h107v-91h-107v-390h111zM150 996l63 -166h-77l-96 166h110z" />
    <glyph glyph-name="Eacute" unicode="&#xc9;" horiz-adv-x="294" 
d="M270 99v-99h-226v790h225v-95h-110v-115h107v-91h-107v-390h111zM100 830l63 166h110l-95 -166h-78z" />
    <glyph glyph-name="Ecircumflex" unicode="&#xca;" horiz-adv-x="294" 
d="M270 99v-99h-226v790h225v-95h-110v-115h107v-91h-107v-390h111zM201 996l101 -166h-72l-73 109l-73 -109h-72l102 166h87z" />
    <glyph glyph-name="Edieresis" unicode="&#xcb;" horiz-adv-x="294" 
d="M270 99v-99h-226v790h225v-95h-110v-115h107v-91h-107v-390h111zM298 981v-104h-102v104h102zM117 981v-104h-101v104h101z" />
    <glyph glyph-name="Igrave" unicode="&#xcc;" horiz-adv-x="208" 
d="M161 790v-790h-115v790h115zM98 996l63 -166h-77l-96 166h110z" />
    <glyph glyph-name="Iacute" unicode="&#xcd;" horiz-adv-x="208" 
d="M161 790v-790h-115v790h115zM47 830l63 166h110l-95 -166h-78z" />
    <glyph glyph-name="Icircumflex" unicode="&#xce;" horiz-adv-x="208" 
d="M161 790v-790h-115v790h115zM148 996l101 -166h-72l-73 109l-73 -109h-72l102 166h87z" />
    <glyph glyph-name="Idieresis" unicode="&#xcf;" horiz-adv-x="208" 
d="M161 790v-790h-115v790h115zM245 981v-104h-102v104h102zM64 981v-104h-101v104h101z" />
    <glyph glyph-name="Eth" unicode="&#xd0;" horiz-adv-x="431" 
d="M38 489v91h27v210h165c136 0 164 -20 164 -161v-467c0 -141 -28 -162 -164 -162h-165v489h-27zM177 691v-111h54v-91h-54v-389h56c42 0 50 9 50 62v467c0 52 -8 62 -50 62h-56z" />
    <glyph glyph-name="Ntilde" unicode="&#xd1;" horiz-adv-x="434" 
d="M389 0h-123l-119 493h-4v-493h-99v790h127l114 -507h4v507h100v-790zM138 914c-33 0 -53 -15 -67 -36v73c15 14 40 26 68 26c56 0 99 -31 155 -31c32 0 54 13 69 36v-72c-15 -17 -40 -29 -70 -29c-57 0 -98 33 -155 33z" />
    <glyph glyph-name="Ograve" unicode="&#xd2;" 
d="M365 634v-477c0 -147 -29 -167 -165 -167s-164 20 -164 167v477c0 146 28 166 164 166s165 -20 165 -166zM249 157v477c0 54 -7 63 -49 63s-49 -12 -49 -63v-477c0 -55 7 -65 49 -65c43 0 49 12 49 65zM194 996l63 -166h-77l-96 166h110z" />
    <glyph glyph-name="Oacute" unicode="&#xd3;" 
d="M365 634v-477c0 -147 -29 -167 -165 -167s-164 20 -164 167v477c0 146 28 166 164 166s165 -20 165 -166zM249 157v477c0 54 -7 63 -49 63s-49 -12 -49 -63v-477c0 -55 7 -65 49 -65c43 0 49 12 49 65zM144 830l63 166h110l-95 -166h-78z" />
    <glyph glyph-name="Ocircumflex" unicode="&#xd4;" 
d="M365 634v-477c0 -147 -29 -167 -165 -167s-164 20 -164 167v477c0 146 28 166 164 166s165 -20 165 -166zM249 157v477c0 54 -7 63 -49 63s-49 -12 -49 -63v-477c0 -55 7 -65 49 -65c43 0 49 12 49 65zM244 996l101 -166h-72l-73 109l-73 -109h-72l102 166h87z" />
    <glyph glyph-name="Otilde" unicode="&#xd5;" 
d="M365 634v-477c0 -147 -29 -167 -165 -167s-164 20 -164 167v477c0 146 28 166 164 166s165 -20 165 -166zM249 157v477c0 54 -7 63 -49 63s-49 -12 -49 -63v-477c0 -55 7 -65 49 -65c43 0 49 12 49 65zM121 914c-33 0 -53 -15 -67 -36v73c15 14 40 26 68 26
c56 0 99 -31 155 -31c32 0 54 13 69 36v-72c-15 -17 -40 -29 -70 -29c-57 0 -98 33 -155 33z" />
    <glyph glyph-name="Odieresis" unicode="&#xd6;" 
d="M365 634v-477c0 -147 -29 -167 -165 -167s-164 20 -164 167v477c0 146 28 166 164 166s165 -20 165 -166zM249 157v477c0 54 -7 63 -49 63s-49 -12 -49 -63v-477c0 -55 7 -65 49 -65c43 0 49 12 49 65zM341 981v-104h-102v104h102zM160 981v-104h-101v104h101z" />
    <glyph glyph-name="multiply" unicode="&#xd7;" horiz-adv-x="483" 
d="M353 223l-111 113l-113 -113l-64 64l113 113l-112 111l63 64l113 -112l111 112l64 -64l-112 -111l112 -113z" />
    <glyph glyph-name="Oslash" unicode="&#xd8;" 
d="M365 634v-477c0 -147 -29 -167 -165 -167c-31 0 -56 2 -77 5l-17 -64h-70l26 93c-20 24 -26 65 -26 133v477c0 146 28 166 164 166c31 0 56 -1 77 -4l18 64h70l-26 -94c20 -24 26 -65 26 -132zM151 634v-291l93 335c-6 15 -18 19 -44 19c-42 0 -49 -12 -49 -63zM249 157
v287l-93 -334c6 -15 19 -18 44 -18c43 0 49 12 49 65z" />
    <glyph glyph-name="Ugrave" unicode="&#xd9;" horiz-adv-x="405" 
d="M203 -10c-132 0 -163 20 -163 167v633h115v-633c0 -55 8 -64 50 -64c40 0 48 9 48 64v633h112v-633c0 -147 -30 -167 -162 -167zM196 996l63 -166h-77l-96 166h110z" />
    <glyph glyph-name="Uacute" unicode="&#xda;" horiz-adv-x="405" 
d="M203 -10c-132 0 -163 20 -163 167v633h115v-633c0 -55 8 -64 50 -64c40 0 48 9 48 64v633h112v-633c0 -147 -30 -167 -162 -167zM146 830l63 166h110l-95 -166h-78z" />
    <glyph glyph-name="Ucircumflex" unicode="&#xdb;" horiz-adv-x="405" 
d="M203 -10c-132 0 -163 20 -163 167v633h115v-633c0 -55 8 -64 50 -64c40 0 48 9 48 64v633h112v-633c0 -147 -30 -167 -162 -167zM246 996l101 -166h-72l-73 109l-73 -109h-72l102 166h87z" />
    <glyph glyph-name="Udieresis" unicode="&#xdc;" horiz-adv-x="405" 
d="M203 -10c-132 0 -163 20 -163 167v633h115v-633c0 -55 8 -64 50 -64c40 0 48 9 48 64v633h112v-633c0 -147 -30 -167 -162 -167zM343 981v-104h-102v104h102zM162 981v-104h-101v104h101z" />
    <glyph glyph-name="Yacute" unicode="&#xdd;" horiz-adv-x="354" 
d="M238 790h112l-118 -511v-279h-115v279l-114 511h114l57 -357h4zM120 830l63 166h110l-95 -166h-78z" />
    <glyph glyph-name="Thorn" unicode="&#xde;" horiz-adv-x="397" 
d="M44 0v790h115v-115h49c136 0 165 -20 165 -161v-169c0 -141 -29 -161 -165 -161h-49v-184h-115zM208 575h-49v-298h49c42 0 49 8 49 64v173c0 54 -8 61 -49 61z" />
    <glyph glyph-name="germandbls" unicode="&#xdf;" horiz-adv-x="395" 
d="M350 669v-131c0 -83 -33 -100 -65 -108v-4c43 -9 76 -32 76 -123v-148c0 -127 -26 -155 -144 -155h-52v102h39c32 0 45 12 45 53v168c0 44 -11 54 -51 54h-37v102h29c40 0 48 14 48 49v136c0 40 -7 50 -48 50c-42 0 -50 -10 -50 -50v-664h-102v669c0 105 47 131 148 131
c118 0 164 -23 164 -131z" />
    <glyph glyph-name="agrave" unicode="&#xe0;" horiz-adv-x="355" 
d="M162 -10c-102 0 -126 15 -126 116v145c0 72 25 104 91 104h19c45 0 60 -4 69 -9v124c0 44 -7 52 -45 52c-36 0 -41 -12 -41 -52v-59h-93v71c0 112 24 127 134 127c119 0 144 -15 144 -127v-482c-24 -6 -73 -10 -152 -10zM170 74c29 0 41 1 45 2v196c-9 5 -21 6 -44 6
c-39 0 -42 -12 -42 -53v-94c0 -46 3 -57 41 -57zM171 805l63 -166h-77l-96 166h110z" />
    <glyph glyph-name="aacute" unicode="&#xe1;" horiz-adv-x="355" 
d="M162 -10c-102 0 -126 15 -126 116v145c0 72 25 104 91 104h19c45 0 60 -4 69 -9v124c0 44 -7 52 -45 52c-36 0 -41 -12 -41 -52v-59h-93v71c0 112 24 127 134 127c119 0 144 -15 144 -127v-482c-24 -6 -73 -10 -152 -10zM170 74c29 0 41 1 45 2v196c-9 5 -21 6 -44 6
c-39 0 -42 -12 -42 -53v-94c0 -46 3 -57 41 -57zM121 639l63 166h110l-95 -166h-78z" />
    <glyph glyph-name="acircumflex" unicode="&#xe2;" horiz-adv-x="355" 
d="M162 -10c-102 0 -126 15 -126 116v145c0 72 25 104 91 104h19c45 0 60 -4 69 -9v124c0 44 -7 52 -45 52c-36 0 -41 -12 -41 -52v-59h-93v71c0 112 24 127 134 127c119 0 144 -15 144 -127v-482c-24 -6 -73 -10 -152 -10zM170 74c29 0 41 1 45 2v196c-9 5 -21 6 -44 6
c-39 0 -42 -12 -42 -53v-94c0 -46 3 -57 41 -57zM221 805l101 -166h-72l-73 109l-73 -109h-72l102 166h87z" />
    <glyph glyph-name="atilde" unicode="&#xe3;" horiz-adv-x="355" 
d="M162 -10c-102 0 -126 15 -126 116v145c0 72 25 104 91 104h19c45 0 60 -4 69 -9v124c0 44 -7 52 -45 52c-36 0 -41 -12 -41 -52v-59h-93v71c0 112 24 127 134 127c119 0 144 -15 144 -127v-482c-24 -6 -73 -10 -152 -10zM170 74c29 0 41 1 45 2v196c-9 5 -21 6 -44 6
c-39 0 -42 -12 -42 -53v-94c0 -46 3 -57 41 -57zM99 723c-33 0 -53 -15 -67 -36v73c15 14 40 26 68 26c56 0 99 -31 155 -31c32 0 54 13 69 36v-72c-15 -17 -40 -29 -70 -29c-57 0 -98 33 -155 33z" />
    <glyph glyph-name="adieresis" unicode="&#xe4;" horiz-adv-x="355" 
d="M162 -10c-102 0 -126 15 -126 116v145c0 72 25 104 91 104h19c45 0 60 -4 69 -9v124c0 44 -7 52 -45 52c-36 0 -41 -12 -41 -52v-59h-93v71c0 112 24 127 134 127c119 0 144 -15 144 -127v-482c-24 -6 -73 -10 -152 -10zM170 74c29 0 41 1 45 2v196c-9 5 -21 6 -44 6
c-39 0 -42 -12 -42 -53v-94c0 -46 3 -57 41 -57zM319 790v-104h-102v104h102zM138 790v-104h-101v104h101z" />
    <glyph glyph-name="aring" unicode="&#xe5;" horiz-adv-x="355" 
d="M162 -10c-102 0 -126 15 -126 116v145c0 72 25 104 91 104h19c45 0 60 -4 69 -9v124c0 44 -7 52 -45 52c-36 0 -41 -12 -41 -52v-59h-93v71c0 112 24 127 134 127c119 0 144 -15 144 -127v-482c-24 -6 -73 -10 -152 -10zM170 74c29 0 41 1 45 2v196c-9 5 -21 6 -44 6
c-39 0 -42 -12 -42 -53v-94c0 -46 3 -57 41 -57zM259 737v-40c0 -60 -15 -68 -82 -68c-66 0 -81 8 -81 68v40c0 60 15 68 81 68c67 0 82 -8 82 -68zM217 701v32c0 26 -7 29 -40 29c-32 0 -39 -3 -39 -29v-32c0 -26 7 -29 39 -29c33 0 40 3 40 29z" />
    <glyph glyph-name="ae" unicode="&#xe6;" horiz-adv-x="531" 
d="M358 -10c-55 2 -82 13 -95 30c-16 -19 -44 -30 -99 -30c-104 0 -128 15 -128 116v145c0 72 25 104 91 104h19c45 0 60 -4 69 -9v124c0 44 -7 52 -45 52c-36 0 -41 -12 -41 -52v-59h-93v71c0 112 24 127 134 127c54 0 79 -13 94 -31c15 18 41 31 94 31
c111 0 135 -15 135 -127v-218h-179v-144c0 -30 6 -43 44 -43c37 0 42 9 42 46v81h93v-87c0 -112 -24 -127 -135 -127zM215 117v155c-9 5 -21 6 -44 6c-39 0 -42 -12 -42 -53v-94c0 -46 3 -57 42 -57c38 0 44 11 44 43zM314 474v-129h86v129c0 37 -7 45 -42 45
c-38 0 -44 -8 -44 -45z" />
    <glyph glyph-name="ccedilla" unicode="&#xe7;" horiz-adv-x="349" 
d="M314 377h-93v94c0 35 -7 42 -42 42c-39 0 -44 -8 -44 -42v-344c0 -35 7 -43 44 -43c35 0 42 11 42 43v155h93v-165c0 -113 -28 -127 -135 -127c-119 0 -143 17 -143 127v365c0 111 26 127 143 127c113 0 135 -20 135 -127v-105zM70 -185l51 165h102l-82 -165h-71z" />
    <glyph glyph-name="egrave" unicode="&#xe8;" horiz-adv-x="351" 
d="M314 264h-178v-141c0 -38 6 -46 43 -46c36 0 43 8 43 46v81h92v-87c0 -112 -24 -127 -135 -127c-118 0 -143 15 -143 127v365c0 112 25 127 143 127c111 0 135 -15 135 -127v-218zM136 474v-128h86v128c0 38 -7 45 -43 45c-37 0 -43 -7 -43 -45zM169 805l63 -166h-77
l-96 166h110z" />
    <glyph glyph-name="eacute" unicode="&#xe9;" horiz-adv-x="351" 
d="M314 264h-178v-141c0 -38 6 -46 43 -46c36 0 43 8 43 46v81h92v-87c0 -112 -24 -127 -135 -127c-118 0 -143 15 -143 127v365c0 112 25 127 143 127c111 0 135 -15 135 -127v-218zM136 474v-128h86v128c0 38 -7 45 -43 45c-37 0 -43 -7 -43 -45zM119 639l63 166h110
l-95 -166h-78z" />
    <glyph glyph-name="ecircumflex" unicode="&#xea;" horiz-adv-x="351" 
d="M314 264h-178v-141c0 -38 6 -46 43 -46c36 0 43 8 43 46v81h92v-87c0 -112 -24 -127 -135 -127c-118 0 -143 15 -143 127v365c0 112 25 127 143 127c111 0 135 -15 135 -127v-218zM136 474v-128h86v128c0 38 -7 45 -43 45c-37 0 -43 -7 -43 -45zM219 805l101 -166h-72
l-73 109l-73 -109h-72l102 166h87z" />
    <glyph glyph-name="edieresis" unicode="&#xeb;" horiz-adv-x="351" 
d="M314 264h-178v-141c0 -38 6 -46 43 -46c36 0 43 8 43 46v81h92v-87c0 -112 -24 -127 -135 -127c-118 0 -143 15 -143 127v365c0 112 25 127 143 127c111 0 135 -15 135 -127v-218zM136 474v-128h86v128c0 38 -7 45 -43 45c-37 0 -43 -7 -43 -45zM317 790v-104h-102v104
h102zM136 790v-104h-101v104h101z" />
    <glyph glyph-name="igrave" unicode="&#xec;" horiz-adv-x="201" 
d="M154 599v-599h-101v599h101zM98 805l63 -166h-77l-96 166h110z" />
    <glyph glyph-name="iacute" unicode="&#xed;" horiz-adv-x="211" 
d="M147 599v-599h-101v599h101zM40 639l63 166h110l-95 -166h-78z" />
    <glyph glyph-name="icircumflex" unicode="&#xee;" horiz-adv-x="266" 
d="M183 599v-599h-101v599h101zM177 805l101 -166h-72l-73 109l-73 -109h-72l102 166h87z" />
    <glyph glyph-name="idieresis" unicode="&#xef;" horiz-adv-x="283" 
d="M191 599v-599h-101v599h101zM282 790v-104h-102v104h102zM101 790v-104h-101v104h101z" />
    <glyph glyph-name="eth" unicode="&#xf0;" horiz-adv-x="360" 
d="M67 575l-25 48l71 39l-73 128h112l45 -81l68 38l25 -47l-67 -37l36 -63c56 -100 64 -136 64 -217v-266c0 -112 -25 -127 -143 -127s-143 15 -143 127v301c0 79 19 115 78 115c40 0 58 -9 89 -36c-6 15 -10 24 -34 66l-30 53zM173 457c-36 0 -36 -23 -36 -68v-233
c0 -59 0 -72 43 -72c38 0 44 14 44 71v249c-9 34 -16 53 -51 53z" />
    <glyph glyph-name="ntilde" unicode="&#xf1;" horiz-adv-x="380" 
d="M146 481v-481h-102v599h95v-40c15 29 44 45 94 45c81 0 106 -28 106 -122v-482h-102v471c0 31 -10 41 -44 41c-26 0 -39 -12 -47 -31zM111 723c-33 0 -53 -15 -67 -36v73c15 14 40 26 68 26c56 0 99 -31 155 -31c32 0 54 13 69 36v-72c-15 -17 -40 -29 -70 -29
c-57 0 -98 33 -155 33z" />
    <glyph glyph-name="ograve" unicode="&#xf2;" horiz-adv-x="359" 
d="M322 482v-365c0 -112 -26 -127 -143 -127c-118 0 -143 15 -143 127v365c0 112 25 127 143 127c117 0 143 -15 143 -127zM223 127v344c0 35 -7 42 -44 42s-44 -9 -44 -42v-344c0 -35 7 -43 44 -43c38 0 44 11 44 43zM173 805l63 -166h-77l-96 166h110z" />
    <glyph glyph-name="oacute" unicode="&#xf3;" horiz-adv-x="359" 
d="M322 482v-365c0 -112 -26 -127 -143 -127c-118 0 -143 15 -143 127v365c0 112 25 127 143 127c117 0 143 -15 143 -127zM223 127v344c0 35 -7 42 -44 42s-44 -9 -44 -42v-344c0 -35 7 -43 44 -43c38 0 44 11 44 43zM123 639l63 166h110l-95 -166h-78z" />
    <glyph glyph-name="ocircumflex" unicode="&#xf4;" horiz-adv-x="359" 
d="M322 482v-365c0 -112 -26 -127 -143 -127c-118 0 -143 15 -143 127v365c0 112 25 127 143 127c117 0 143 -15 143 -127zM223 127v344c0 35 -7 42 -44 42s-44 -9 -44 -42v-344c0 -35 7 -43 44 -43c38 0 44 11 44 43zM223 805l101 -166h-72l-73 109l-73 -109h-72l102 166
h87z" />
    <glyph glyph-name="otilde" unicode="&#xf5;" horiz-adv-x="359" 
d="M322 482v-365c0 -112 -26 -127 -143 -127c-118 0 -143 15 -143 127v365c0 112 25 127 143 127c117 0 143 -15 143 -127zM223 127v344c0 35 -7 42 -44 42s-44 -9 -44 -42v-344c0 -35 7 -43 44 -43c38 0 44 11 44 43zM101 723c-33 0 -53 -15 -67 -36v73c15 14 40 26 68 26
c56 0 99 -31 155 -31c32 0 54 13 69 36v-72c-15 -17 -40 -29 -70 -29c-57 0 -98 33 -155 33z" />
    <glyph glyph-name="odieresis" unicode="&#xf6;" horiz-adv-x="359" 
d="M322 482v-365c0 -112 -26 -127 -143 -127c-118 0 -143 15 -143 127v365c0 112 25 127 143 127c117 0 143 -15 143 -127zM223 127v344c0 35 -7 42 -44 42s-44 -9 -44 -42v-344c0 -35 7 -43 44 -43c38 0 44 11 44 43zM321 790v-104h-102v104h102zM140 790v-104h-101v104
h101z" />
    <glyph glyph-name="divide" unicode="&#xf7;" horiz-adv-x="496" 
d="M451 354h-407v91h407v-91zM300 254v-132h-105v132h105zM300 677v-132h-105v132h105z" />
    <glyph glyph-name="oslash" unicode="&#xf8;" horiz-adv-x="359" 
d="M322 482v-365c0 -112 -26 -127 -143 -127c-21 0 -39 1 -54 2l-18 -61h-71l24 83c-19 18 -24 49 -24 103v365c0 112 25 127 143 127c20 0 38 -1 54 -2l18 61h71l-25 -84c19 -18 25 -49 25 -102zM223 127v201l-71 -242c7 -2 15 -2 27 -2c38 0 44 11 44 43zM135 471v-201
l70 240c-7 2 -15 3 -26 3c-37 0 -44 -9 -44 -42z" />
    <glyph glyph-name="ugrave" unicode="&#xf9;" horiz-adv-x="377" 
d="M230 117v482h103v-599h-96v39c-15 -29 -43 -44 -92 -44c-81 0 -105 27 -105 122v482h102v-472c0 -29 8 -41 42 -41c26 0 38 12 46 31zM182 805l63 -166h-77l-96 166h110z" />
    <glyph glyph-name="uacute" unicode="&#xfa;" horiz-adv-x="377" 
d="M230 117v482h103v-599h-96v39c-15 -29 -43 -44 -92 -44c-81 0 -105 27 -105 122v482h102v-472c0 -29 8 -41 42 -41c26 0 38 12 46 31zM132 639l63 166h110l-95 -166h-78z" />
    <glyph glyph-name="ucircumflex" unicode="&#xfb;" horiz-adv-x="377" 
d="M230 117v482h103v-599h-96v39c-15 -29 -43 -44 -92 -44c-81 0 -105 27 -105 122v482h102v-472c0 -29 8 -41 42 -41c26 0 38 12 46 31zM232 805l101 -166h-72l-73 109l-73 -109h-72l102 166h87z" />
    <glyph glyph-name="udieresis" unicode="&#xfc;" horiz-adv-x="377" 
d="M230 117v482h103v-599h-96v39c-15 -29 -43 -44 -92 -44c-81 0 -105 27 -105 122v482h102v-472c0 -29 8 -41 42 -41c26 0 38 12 46 31zM329 790v-104h-102v104h102zM148 790v-104h-101v104h101z" />
    <glyph glyph-name="yacute" unicode="&#xfd;" horiz-adv-x="380" 
d="M233 148v451h102v-609c0 -97 -39 -143 -140 -143h-134v86h109c45 0 61 12 61 57v77c-15 -26 -43 -41 -88 -41c-79 0 -103 27 -103 122v451h102v-432c0 -40 12 -50 46 -50c23 0 36 12 45 31zM133 639l63 166h110l-95 -166h-78z" />
    <glyph glyph-name="thorn" unicode="&#xfe;" horiz-adv-x="367" 
d="M330 482v-365c0 -95 -18 -122 -97 -122c-46 0 -72 15 -87 41v-189h-102v943h102v-228c15 26 41 42 87 42c79 0 97 -28 97 -122zM143 481v-364c8 -19 23 -31 45 -31c34 0 43 10 43 50v326c0 40 -9 50 -43 50c-22 0 -37 -12 -45 -31z" />
    <glyph glyph-name="ydieresis" unicode="&#xff;" horiz-adv-x="380" 
d="M233 148v451h102v-609c0 -97 -39 -143 -140 -143h-134v86h109c45 0 61 12 61 57v77c-15 -26 -43 -41 -88 -41c-79 0 -103 27 -103 122v451h102v-432c0 -40 12 -50 46 -50c23 0 36 12 45 31zM331 790v-104h-102v104h102zM150 790v-104h-101v104h101z" />
    <glyph glyph-name="Idotaccent" unicode="&#x130;" horiz-adv-x="208" 
d="M161 790v-790h-115v790h115zM154 981v-104h-101v104h101z" />
    <glyph glyph-name="OE" unicode="&#x152;" horiz-adv-x="505" 
d="M459 98v-98h-259c-136 0 -164 21 -164 162v467c0 141 28 161 164 161h259v-96h-110v-114h106v-92h-106v-390h110zM151 629v-467c0 -53 7 -63 49 -63h37v591h-37c-42 0 -49 -9 -49 -61z" />
    <glyph glyph-name="oe" unicode="&#x153;" horiz-adv-x="537" 
d="M501 264h-179v-144c0 -36 8 -43 44 -43s43 7 43 46v81h92v-87c0 -112 -24 -127 -135 -127c-49 0 -80 11 -95 30c-16 -19 -44 -30 -92 -30c-118 0 -143 15 -143 127v365c0 112 25 127 143 127c49 0 78 -14 93 -32c15 18 41 32 94 32c111 0 135 -15 135 -127v-218zM322 477
v-132h87v129c0 37 -7 45 -43 45c-35 0 -44 -9 -44 -42zM223 127v344c0 35 -7 42 -44 42s-44 -9 -44 -42v-344c0 -35 7 -43 44 -43c38 0 44 11 44 43z" />
    <glyph glyph-name="racute" unicode="&#x155;" horiz-adv-x="338" 
d="M146 479v-479h-102v599h95v-40c14 27 44 45 93 45c70 0 93 -28 93 -122v-149h-92v137c0 32 -8 42 -42 42c-21 0 -38 -12 -45 -33zM132 639l63 166h110l-95 -166h-78z" />
    <glyph glyph-name="Rcommaaccent" unicode="&#x156;" horiz-adv-x="411" 
d="M159 390v-390h-115v790h164c136 0 165 -22 165 -161v-83c0 -83 -40 -100 -71 -108v-4c42 -10 71 -32 71 -119v-315h-116v333c0 43 -6 57 -46 57h-52zM159 690v-209h52c37 0 46 13 46 51v97c0 50 -5 61 -49 61h-49zM107 -185l51 165h102l-82 -165h-71z" />
    <glyph glyph-name="Scaron" unicode="&#x160;" horiz-adv-x="397" 
d="M359 534h-112v98c0 56 -5 65 -49 65s-49 -9 -49 -65v-78c0 -41 6 -48 64 -78c139 -72 150 -89 150 -192v-127c0 -147 -28 -167 -165 -167c-129 0 -160 20 -160 167v157h112v-157c0 -55 6 -65 48 -65c43 0 49 10 49 65v119c0 53 -4 64 -64 95c-138 71 -149 94 -149 185v76
c0 147 27 168 164 168c133 0 161 -21 161 -168v-98zM155 830l-102 166h72l73 -109l73 109h72l-102 -166h-86z" />
    <glyph glyph-name="scaron" unicode="&#x161;" horiz-adv-x="355" 
d="M320 426h-99v45c0 35 -6 43 -43 43c-39 0 -44 -8 -44 -43v-48c0 -31 5 -42 51 -61c29 -12 51 -23 69 -32c59 -30 66 -54 66 -101v-111c0 -113 -23 -128 -142 -128c-118 0 -144 15 -144 128v92h100v-81c0 -36 7 -44 44 -44c39 0 43 9 43 44v73c0 35 -7 44 -62 66
c-26 10 -47 20 -63 28c-51 26 -62 52 -62 112v73c0 113 25 128 144 128c118 0 142 -15 142 -128v-55zM134 639l-102 166h72l73 -109l73 109h72l-102 -166h-86z" />
    <glyph glyph-name="Ydieresis" unicode="&#x178;" horiz-adv-x="354" 
d="M238 790h112l-118 -511v-279h-115v279l-114 511h114l57 -357h4zM318 981v-104h-102v104h102zM137 981v-104h-101v104h101z" />
    <glyph glyph-name="Zcaron" unicode="&#x17d;" horiz-adv-x="314" 
d="M295 99v-99h-277v100l159 594h-143v96h259v-78l-155 -613h157zM124 830l-102 166h72l73 -109l73 109h72l-102 -166h-86z" />
    <glyph glyph-name="zcaron" unicode="&#x17e;" horiz-adv-x="301" 
d="M284 86v-86h-269v87l165 429h-147v83h248v-77l-160 -436h163zM118 639l-102 166h72l73 -109l73 109h72l-102 -166h-86z" />
    <glyph glyph-name="florin" unicode="&#x192;" horiz-adv-x="270" 
d="M78 -17v533h-33v83h33v64c0 88 38 127 146 127h32v-76h-20c-41 0 -55 -14 -55 -56v-59h75v-83h-75v-542c0 -88 -38 -127 -146 -127h-32v76h20c44 0 55 14 55 60z" />
    <glyph glyph-name="scommaaccent" unicode="&#x219;" horiz-adv-x="355" 
d="M320 426h-99v45c0 35 -6 43 -43 43c-39 0 -44 -8 -44 -43v-48c0 -31 5 -42 51 -61c29 -12 51 -23 69 -32c59 -30 66 -54 66 -101v-111c0 -113 -23 -128 -142 -128c-118 0 -144 15 -144 128v92h100v-81c0 -36 7 -44 44 -44c39 0 43 9 43 44v73c0 35 -7 44 -62 66
c-26 10 -47 20 -63 28c-51 26 -62 52 -62 112v73c0 113 25 128 144 128c118 0 142 -15 142 -128v-55zM75 -185l51 165h102l-82 -165h-71z" />
    <glyph glyph-name="circumflex" unicode="&#x2c6;" horiz-adv-x="320" 
d="M203 805l101 -166h-72l-73 109l-73 -109h-72l102 166h87z" />
    <glyph glyph-name="tilde" unicode="&#x2dc;" horiz-adv-x="385" 
d="M113 723c-33 0 -53 -15 -67 -36v73c15 14 40 26 68 26c56 0 99 -31 155 -31c32 0 54 13 69 36v-72c-15 -17 -40 -29 -70 -29c-57 0 -98 33 -155 33z" />
    <glyph glyph-name="endash" unicode="&#x2013;" horiz-adv-x="355" 
d="M334 378v-90h-313v90h313z" />
    <glyph glyph-name="emdash" unicode="&#x2014;" horiz-adv-x="582" 
d="M561 378v-90h-540v90h540z" />
    <glyph glyph-name="quoteleft" unicode="&#x2018;" horiz-adv-x="193" 
d="M44 644v125c0 73 13 112 97 112h8v-47h-13c-23 0 -32 -11 -32 -47v-12h45v-131h-105z" />
    <glyph glyph-name="quoteright" unicode="&#x2019;" horiz-adv-x="193" 
d="M149 862v-151c0 -55 -25 -87 -94 -87h-11v47h13c21 0 32 9 32 37v22h-45v132h105z" />
    <glyph glyph-name="quotesinglbase" unicode="&#x201a;" horiz-adv-x="193" 
d="M149 132v-151c0 -55 -25 -87 -94 -87h-11v47h13c21 0 32 9 32 37v22h-45v132h105z" />
    <glyph glyph-name="quotedblleft" unicode="&#x201c;" horiz-adv-x="386" 
d="M44 644v125c0 73 13 112 97 112h8v-47h-13c-23 0 -32 -11 -32 -47v-12h45v-131h-105zM237 644v125c0 73 13 112 97 112h8v-47h-13c-23 0 -32 -11 -32 -47v-12h45v-131h-105z" />
    <glyph glyph-name="quotedblright" unicode="&#x201d;" horiz-adv-x="386" 
d="M149 862v-151c0 -55 -25 -87 -94 -87h-11v47h13c21 0 32 9 32 37v22h-45v132h105zM342 862v-151c0 -55 -25 -87 -94 -87h-11v47h13c21 0 32 9 32 37v22h-45v132h105z" />
    <glyph glyph-name="quotedblbase" unicode="&#x201e;" horiz-adv-x="386" 
d="M149 132v-151c0 -55 -25 -87 -94 -87h-11v47h13c21 0 32 9 32 37v22h-45v132h105zM342 132v-151c0 -55 -25 -87 -94 -87h-11v47h13c21 0 32 9 32 37v22h-45v132h105z" />
    <glyph glyph-name="dagger" unicode="&#x2020;" 
d="M238 0h-76v541h-139v76h139v173h76v-173h139v-76h-139v-541z" />
    <glyph glyph-name="daggerdbl" unicode="&#x2021;" 
d="M238 0h-76v173h-139v77h139v291h-139v76h139v173h76v-173h139v-76h-139v-291h139v-77h-139v-173z" />
    <glyph glyph-name="bullet" unicode="&#x2022;" horiz-adv-x="324" 
d="M287 442v-29c0 -101 -22 -116 -124 -116c-101 0 -125 15 -125 116v29c0 101 24 114 125 114c102 0 124 -13 124 -114z" />
    <glyph glyph-name="ellipsis" unicode="&#x2026;" horiz-adv-x="772" 
d="M152 132v-132h-105v132h105zM438 132v-132h-105v132h105zM724 132v-132h-105v132h105z" />
    <glyph glyph-name="perthousand" unicode="&#x2030;" horiz-adv-x="1019" 
d="M259 702v-259c0 -84 -19 -95 -110 -95s-109 11 -109 95v259c0 83 18 94 109 94s110 -11 110 -94zM179 443v259c0 26 -4 30 -30 30s-30 -5 -30 -30v-259c0 -27 4 -31 30 -31c27 0 30 5 30 31zM485 790h78l-330 -790h-78zM676 348v-259c0 -84 -19 -95 -110 -95
s-109 11 -109 95v259c0 83 18 94 109 94s110 -11 110 -94zM596 89v259c0 26 -4 30 -30 30s-30 -5 -30 -30v-259c0 -27 4 -31 30 -31c27 0 30 5 30 31zM977 348v-259c0 -84 -19 -95 -110 -95s-109 11 -109 95v259c0 83 18 94 109 94s110 -11 110 -94zM897 89v259
c0 26 -4 30 -30 30s-30 -5 -30 -30v-259c0 -27 4 -31 30 -31c27 0 30 5 30 31z" />
    <glyph glyph-name="guilsinglleft" unicode="&#x2039;" horiz-adv-x="234" 
d="M38 409l156 105v-78l-98 -68l98 -69v-78l-156 105v83z" />
    <glyph glyph-name="guilsinglright" unicode="&#x203a;" horiz-adv-x="234" 
d="M40 514l156 -105v-83l-156 -105v78l98 69l-98 68v78z" />
    <glyph glyph-name="sixsuperior" unicode="&#x2076;" horiz-adv-x="301" 
d="M259 522v-79c0 -84 -19 -95 -110 -95s-109 11 -109 95v259c0 83 18 94 109 94c86 0 105 -11 105 -94v-47h-76v47c0 26 -3 30 -29 30s-30 -6 -30 -30v-106c12 12 34 20 64 20c64 0 76 -24 76 -94zM179 443v77c0 34 -7 39 -26 39c-22 0 -31 -7 -34 -20v-91
c0 -32 6 -36 30 -36s30 4 30 31z" />
    <glyph glyph-name="Euro" unicode="&#x20ac;" horiz-adv-x="414" 
d="M23 437l12 72h27v125c0 145 33 166 164 166c129 0 159 -20 159 -166v-48h-111v51c0 53 -8 63 -48 63c-49 0 -49 -20 -49 -75v-116h186l-20 -72h-166v-86h142l-21 -71h-121v-115c0 -65 3 -76 49 -76c42 0 48 10 48 64v53h111v-49c0 -147 -30 -167 -159 -167
c-136 0 -164 20 -164 167v123h-39l12 71h27v86h-39z" />
    <glyph glyph-name="trademark" unicode="&#x2122;" horiz-adv-x="590" 
d="M451 790h100v-399h-60v280h-5l-50 -280h-65l-51 283h-4v-283h-60v399h101l44 -270h3zM218 790v-51h-55v-348h-76v348h-55v51h186z" />
  </font>
</defs>
</svg>
