<svg xmlns="http://www.w3.org/2000/svg" xmlns:xlink="http://www.w3.org/1999/xlink" version="1.1" x="0px" y="0px" viewBox="0 40 100 20" enable-background="new 0 0 100 60" xml:space="preserve"><path d="M89.431,53.925c-2.649,0-5.907-3.437-6.045-3.582c-1.487-1.73-2.992-3.268-5.205-3.268c-2.426,0-5.276,3.222-5.305,3.254  l-0.247,0.269c-1.571,1.711-3.055,3.327-5.698,3.327c-2.649,0-5.907-3.437-6.045-3.582c-1.487-1.73-2.992-3.268-5.205-3.268  c-2.426,0-5.276,3.222-5.305,3.254l-0.233,0.245c-1.794,1.872-3.21,3.351-5.711,3.351c-2.65,0-5.908-3.437-6.045-3.582  c-1.488-1.73-2.993-3.268-5.205-3.268c-2.426,0-5.276,3.222-5.305,3.254l-0.249,0.271c-1.57,1.71-3.054,3.324-5.696,3.324  c-2.65,0-5.908-3.437-6.045-3.582c-1.488-1.73-2.993-3.268-5.205-3.268c-2.202,0-4.209,1.21-5.239,3.158  c-0.128,0.244-0.431,0.337-0.676,0.209c-0.244-0.13-0.337-0.432-0.208-0.676c1.204-2.276,3.55-3.691,6.123-3.691  c2.634,0,4.382,1.778,5.948,3.599c0.84,0.893,3.461,3.251,5.302,3.251c2.203,0,3.419-1.324,4.959-3l0.242-0.263  c0.12-0.137,3.174-3.586,6.049-3.586c2.634,0,4.382,1.778,5.948,3.599c0.84,0.893,3.461,3.251,5.302,3.251  c2.074,0,3.234-1.21,4.989-3.042l0.219-0.229c0.113-0.13,3.167-3.579,6.042-3.579c2.635,0,4.384,1.778,5.948,3.599  c0.84,0.892,3.461,3.25,5.302,3.25c2.204,0,3.421-1.325,4.962-3.003l0.24-0.261c0.12-0.137,3.174-3.586,6.048-3.586  c2.635,0,4.384,1.778,5.948,3.599c0.84,0.892,3.461,3.25,5.302,3.25c2.112,0,4.08-1.138,5.136-2.97  c0.138-0.24,0.443-0.323,0.684-0.184c0.239,0.138,0.321,0.444,0.184,0.683C94.199,52.595,91.899,53.925,89.431,53.925z"></path></svg>
